<svg width="12" height="16" viewBox="0 0 12 16" fill="none" xmlns="http://www.w3.org/2000/svg">
<path d="M6.28571 14L5.87603 14.3776L6.28571 14.8221L6.69539 14.3776L6.28571 14ZM6.28571 14C6.69539 14.3776 6.69547 14.3775 6.69557 14.3774L6.69584 14.3771L6.69668 14.3762L6.69951 14.3731L6.70973 14.3619L6.7477 14.32C6.78054 14.2836 6.82811 14.2304 6.8883 14.1619C7.00866 14.025 7.17967 13.8269 7.38446 13.5796C7.79353 13.0856 8.33993 12.3925 8.88747 11.5972C9.4339 10.8035 9.98862 9.89777 10.4085 8.97929C10.8249 8.06835 11.1286 7.10252 11.1286 6.2C11.1286 3.55974 8.95214 1.44286 6.28571 1.44286C3.61929 1.44286 1.44286 3.55974 1.44286 6.2C1.44286 7.10252 1.7465 8.06835 2.16294 8.97929C2.58281 9.89777 3.13753 10.8035 3.68396 11.5972C4.2315 12.3925 4.7779 13.0856 5.18697 13.5796C5.39176 13.8269 5.56277 14.025 5.68313 14.1619C5.74332 14.2304 5.79089 14.2836 5.82373 14.32L5.8617 14.3619L5.87192 14.3731L5.87475 14.3762L5.87559 14.3771L5.87586 14.3774C5.87596 14.3775 5.87603 14.3776 6.28571 14ZM6.28571 7.14286C5.73785 7.14286 5.31224 6.70974 5.31224 6.2C5.31224 5.69026 5.73785 5.25714 6.28571 5.25714C6.83358 5.25714 7.25918 5.69026 7.25918 6.2C7.25918 6.70974 6.83358 7.14286 6.28571 7.14286Z" stroke="#B3805E" stroke-width="1.11429"/>
</svg>
