<svg width="13" height="16" viewBox="0 0 13 16" fill="none" xmlns="http://www.w3.org/2000/svg">
<path d="M6.50016 12.0416C7.27933 12.0416 7.91683 11.4041 7.91683 10.625C7.91683 9.84581 7.27933 9.20831 6.50016 9.20831C5.721 9.20831 5.0835 9.84581 5.0835 10.625C5.0835 11.4041 5.721 12.0416 6.50016 12.0416ZM10.7502 5.66665H10.0418V4.24998C10.0418 2.29498 8.45516 0.708313 6.50016 0.708313C4.54516 0.708313 2.9585 2.29498 2.9585 4.24998H4.30433C4.30433 3.03873 5.28891 2.05415 6.50016 2.05415C7.71141 2.05415 8.696 3.03873 8.696 4.24998V5.66665H2.25016C1.471 5.66665 0.833496 6.30415 0.833496 7.08331V14.1666C0.833496 14.9458 1.471 15.5833 2.25016 15.5833H10.7502C11.5293 15.5833 12.1668 14.9458 12.1668 14.1666V7.08331C12.1668 6.30415 11.5293 5.66665 10.7502 5.66665ZM10.7502 14.1666H2.25016V7.08331H10.7502V14.1666Z" fill="#D89F78"/>
</svg>
