<svg width="25" height="25" viewBox="0 0 25 25" fill="none" xmlns="http://www.w3.org/2000/svg">
<path fill-rule="evenodd" clip-rule="evenodd" d="M23.0213 12.3423C23.0213 6.40964 18.2109 1.59924 12.2782 1.59924C6.34555 1.59924 1.53516 6.40964 1.53516 12.3423C1.53516 17.7042 5.46309 22.1487 10.5996 22.9554L10.5996 15.4487H7.87116V12.3423H10.5996V9.97547C10.5996 7.28347 12.2039 5.79527 14.6575 5.79527C15.833 5.79527 17.0627 6.00533 17.0627 6.00533V8.64937H15.7074C14.3736 8.64937 13.9563 9.47716 13.9563 10.328V12.3423L16.9356 12.3423L16.4599 15.4487L13.9568 15.4487L13.9568 22.9563C19.0933 22.1501 23.0213 17.7057 23.0213 12.3423Z" fill="#183245"/>
</svg>
