<svg width="25" height="25" viewBox="0 0 25 25" fill="none" xmlns="http://www.w3.org/2000/svg">
<path d="M18.0919 23.4375C17.1388 23.4375 15.7999 23.0928 13.795 21.9727C11.357 20.6055 9.47128 19.3433 7.04647 16.9248C4.70858 14.5884 3.57089 13.0757 1.9786 10.1783C0.179775 6.90677 0.486416 5.19193 0.829189 4.45902C1.23739 3.58304 1.83993 3.05912 2.61874 2.5391C3.0611 2.24927 3.52922 2.00083 4.01718 1.79691C4.06601 1.77591 4.11142 1.75589 4.15194 1.73783C4.39364 1.62894 4.75985 1.46439 5.22372 1.64017C5.53329 1.75638 5.80966 1.99418 6.24228 2.42142C7.12948 3.29642 8.34188 5.24515 8.78915 6.20218C9.08944 6.8472 9.28817 7.27298 9.28866 7.75052C9.28866 8.30961 9.00741 8.74076 8.6661 9.20609C8.60214 9.29349 8.53866 9.37699 8.47714 9.45804C8.10556 9.94632 8.02401 10.0874 8.07772 10.3394C8.18661 10.8457 8.99862 12.3531 10.3331 13.6846C11.6676 15.0161 13.1314 15.7769 13.6397 15.8853C13.9024 15.9414 14.0465 15.8565 14.5504 15.4717C14.6226 15.4165 14.6969 15.3594 14.7745 15.3023C15.295 14.9151 15.7061 14.6411 16.252 14.6411H16.255C16.7301 14.6411 17.1368 14.8472 17.8106 15.187C18.6895 15.6304 20.6969 16.8272 21.5772 17.7154C22.0055 18.147 22.2442 18.4224 22.3609 18.7315C22.5367 19.1968 22.3712 19.5616 22.2633 19.8057C22.2452 19.8462 22.2252 19.8907 22.2042 19.94C21.9987 20.4271 21.7487 20.8942 21.4576 21.3355C20.9386 22.1119 20.4127 22.7129 19.5348 23.1216C19.0839 23.3349 18.5906 23.4429 18.0919 23.4375Z" fill="#294053"/>
</svg>
