<svg width="26" height="26" viewBox="0 0 26 26" fill="none" xmlns="http://www.w3.org/2000/svg">
<path d="M11.5062 22.5789L11.5062 22.5789C11.9251 22.9802 12.4826 23.2 13.0737 23.2C13.6647 23.2 14.2221 22.9802 14.6411 22.5789L14.6411 22.5789L18.9598 18.4407C20.5336 16.9329 21.4022 14.9252 21.4022 12.7888C21.4022 10.6525 20.5334 8.64476 18.9598 7.13691C17.3865 5.62919 15.2953 4.8 13.0738 4.8C10.8522 4.8 8.76104 5.62933 7.18773 7.1369C5.61413 8.64476 4.74531 10.6525 4.74531 12.7888C4.74531 14.9252 5.61412 16.9329 7.18773 18.4407L11.5062 22.5789ZM13.586 21.5444L13.7134 21.6774L13.586 21.5444C13.452 21.6728 13.2709 21.7453 13.0737 21.7453C12.8765 21.7453 12.6954 21.6728 12.5613 21.5444C12.5612 21.5444 12.5612 21.5443 12.5612 21.5443L8.24283 17.4061L8.24282 17.4061C6.95381 16.1711 6.24599 14.5316 6.24599 12.7888C6.24599 11.0459 6.95381 9.40658 8.24283 8.17141C9.53214 6.93611 11.2469 6.25469 13.0738 6.25469C14.9006 6.25469 16.6155 6.93611 17.9048 8.17141C20.5628 10.7184 20.5628 14.8594 17.9049 17.4061L13.586 21.5444Z" fill="#294053" stroke="#294053" stroke-width="0.4"/>
<path d="M13.0739 9.80208C11.3678 9.80208 9.96553 11.1338 9.96553 12.7889C9.96553 14.4439 11.3678 15.7756 13.0739 15.7756C14.7798 15.7756 16.1821 14.4439 16.1821 12.7889C16.1821 11.1338 14.7798 9.80208 13.0739 9.80208ZM13.0739 14.3209C12.1794 14.3209 11.4662 13.6255 11.4662 12.7888C11.4662 11.9522 12.1794 11.2568 13.0739 11.2568C13.9682 11.2568 14.6814 11.9522 14.6814 12.7888C14.6814 13.6255 13.9682 14.3209 13.0739 14.3209Z" fill="#294053" stroke="#294053" stroke-width="0.4"/>
</svg>
