<svg width="30" height="30" viewBox="0 0 30 30" fill="none" xmlns="http://www.w3.org/2000/svg">
<path d="M18.491 3.78398C17.3507 2.55293 15.7581 1.875 14.0003 1.875C12.2331 1.875 10.6353 2.54883 9.50034 3.77227C8.35307 5.00918 7.79409 6.69023 7.92534 8.50547C8.18549 12.0867 10.9107 15 14.0003 15C17.09 15 19.8105 12.0873 20.0748 8.50664C20.2078 6.70781 19.6453 5.03027 18.491 3.78398ZM24.3128 28.125H3.68784C3.41787 28.1285 3.15052 28.0718 2.90524 27.959C2.65995 27.8462 2.4429 27.6801 2.26987 27.4728C1.88901 27.0176 1.73549 26.3959 1.84916 25.7672C2.34369 23.0238 3.88705 20.7193 6.31284 19.1016C8.46791 17.6654 11.1978 16.875 14.0003 16.875C16.8029 16.875 19.5328 17.666 21.6878 19.1016C24.1136 20.7187 25.657 23.0232 26.1515 25.7666C26.2652 26.3953 26.1117 27.017 25.7308 27.4723C25.5578 27.6796 25.3408 27.8458 25.0955 27.9587C24.8502 28.0716 24.5828 28.1284 24.3128 28.125Z" fill="#294053"/>
</svg>
