<svg width="17" height="17" viewBox="0 0 17 17" fill="none" xmlns="http://www.w3.org/2000/svg">
<path d="M14.9748 12.418C14.4475 11.8867 13.1705 11.1114 12.551 10.799C11.7441 10.3926 11.6777 10.3594 11.0436 10.8305C10.6205 11.145 10.3393 11.4259 9.84425 11.3203C9.34919 11.2147 8.27341 10.6194 7.33144 9.68037C6.38947 8.74139 5.7596 7.6344 5.65369 7.141C5.54777 6.6476 5.83331 6.36969 6.14476 5.94568C6.58371 5.34803 6.5505 5.24842 6.17531 4.44158C5.88279 3.81404 5.08492 2.549 4.55167 2.0244C3.98124 1.46094 3.98124 1.56055 3.61369 1.71328C3.31445 1.83918 3.02737 1.99223 2.75605 2.17049C2.2248 2.52344 1.92996 2.81662 1.72376 3.25723C1.51757 3.69783 1.42494 4.73078 2.48976 6.6652C3.55458 8.59961 4.30165 9.58873 5.84792 11.1307C7.39419 12.6726 8.5832 13.5017 10.3214 14.4766C12.4716 15.6808 13.2964 15.4461 13.7383 15.2402C14.1802 15.0344 14.4748 14.7422 14.8284 14.2109C15.0071 13.9401 15.1605 13.6533 15.2866 13.3543C15.4396 12.9881 15.5393 12.9881 14.9748 12.418Z" fill="#EFAF84" stroke="#EFAF84" stroke-width="1.0625" stroke-miterlimit="10"/>
</svg>
