<svg width="25" height="25" viewBox="0 0 25 25" fill="none" xmlns="http://www.w3.org/2000/svg">
<path d="M3.32551 8.2461C3.32905 7.05993 3.80183 5.92334 4.64058 5.08459C5.47934 4.24583 6.61592 3.77305 7.8021 3.76951L16.7543 3.76951C17.9405 3.77305 19.0771 4.24583 19.9158 5.08459C20.7546 5.92334 21.2274 7.05993 21.2309 8.2461L21.2309 17.1983C21.2274 18.3845 20.7546 19.5211 19.9158 20.3598C19.0771 21.1986 17.9405 21.6714 16.7543 21.6749L7.8021 21.6749C6.61592 21.6714 5.47934 21.1986 4.64058 20.3598C3.80183 19.5211 3.32905 18.3845 3.32551 17.1983L3.32551 8.2461ZM1.53516 8.2461L1.53516 17.1983C1.53516 20.6452 4.35521 23.4653 7.8021 23.4653L16.7543 23.4653C20.2012 23.4653 23.0213 20.6452 23.0213 17.1983L23.0213 8.2461C23.0213 4.79921 20.2012 1.97916 16.7543 1.97916L7.8021 1.97916C4.35521 1.97916 1.53516 4.79921 1.53516 8.2461Z" fill="#183245"/>
<path d="M7.80198 6.90323C7.80198 7.16882 7.72322 7.42845 7.57566 7.64929C7.4281 7.87012 7.21837 8.04225 6.97299 8.14389C6.72761 8.24553 6.4576 8.27212 6.19711 8.2203C5.93662 8.16849 5.69734 8.04059 5.50953 7.85279C5.32173 7.66498 5.19383 7.4257 5.14201 7.16521C5.0902 6.90471 5.11679 6.63471 5.21843 6.38933C5.32007 6.14395 5.49219 5.93422 5.71303 5.78666C5.93386 5.6391 6.1935 5.56034 6.45909 5.56034C6.63555 5.55997 6.81034 5.59444 6.97344 5.66179C7.13654 5.72914 7.28473 5.82804 7.4095 5.95282C7.53427 6.07759 7.63318 6.22578 7.70053 6.38888C7.76788 6.55198 7.80235 6.72677 7.80198 6.90323ZM8.69691 12.7222C8.69691 12.0139 8.90694 11.3215 9.30045 10.7326C9.69395 10.1437 10.2533 9.68469 10.9076 9.41364C11.562 9.14259 12.2821 9.07167 12.9767 9.20985C13.6714 9.34803 14.3095 9.68911 14.8104 10.1899C15.3112 10.6908 15.6523 11.3289 15.7905 12.0236C15.9286 12.7182 15.8577 13.4383 15.5867 14.0927C15.3156 14.7471 14.8566 15.3064 14.2677 15.6999C13.6788 16.0934 12.9864 16.3034 12.2781 16.3034C11.3286 16.3024 10.4183 15.9248 9.74693 15.2534C9.07555 14.582 8.69793 13.6717 8.69691 12.7222ZM6.90656 12.7222C6.90656 13.7846 7.2216 14.8231 7.81183 15.7065C8.40206 16.5898 9.24098 17.2783 10.2225 17.6849C11.204 18.0914 12.284 18.1978 13.326 17.9905C14.368 17.7833 15.3251 17.2717 16.0763 16.5205C16.8276 15.7692 17.3391 14.8121 17.5464 13.7702C17.7537 12.7282 17.6473 11.6481 17.2407 10.6666C16.8342 9.68511 16.1457 8.84619 15.2624 8.25596C14.379 7.66573 13.3405 7.35069 12.2781 7.35069C10.8535 7.35069 9.4872 7.91662 8.47985 8.92398C7.47249 9.93133 6.90656 11.2976 6.90656 12.7222Z" fill="#183245"/>
</svg>
