<svg width="25" height="25" viewBox="0 0 25 25" fill="none" xmlns="http://www.w3.org/2000/svg">
<path fill-rule="evenodd" clip-rule="evenodd" d="M23.2465 6.77518C23.4172 6.23419 23.2465 5.84092 22.4911 5.84092H19.9794C19.3459 5.84092 19.0533 6.18527 18.8826 6.5536C18.8826 6.5536 17.5905 9.69979 15.7863 11.7395C15.2012 12.3294 14.9331 12.5261 14.616 12.5261C14.4453 12.5261 14.2257 12.3294 14.2257 11.7889V6.74976C14.2257 6.11093 14.0309 5.81598 13.4943 5.81598H9.54427C9.15388 5.81598 8.91024 6.11093 8.91024 6.40589C8.91024 7.02026 9.81237 7.16797 9.90973 8.8883V12.6263C9.90973 13.4373 9.76585 13.5855 9.44643 13.5855C8.59322 13.5855 6.52087 10.4149 5.27774 6.80204C5.03602 6.08647 4.79047 5.81598 4.15644 5.81598H1.62079C0.889397 5.81598 0.767578 6.15985 0.767578 6.52867C0.767578 7.19243 1.62079 10.5348 4.74155 14.9586C6.8139 17.9801 9.76393 19.604 12.4214 19.604C14.0309 19.604 14.2257 19.2352 14.2257 18.6208V16.3351C14.2257 15.5979 14.3719 15.4751 14.8841 15.4751C15.2496 15.4751 15.9081 15.6713 17.3953 17.1216C19.1018 18.8419 19.3943 19.6285 20.3454 19.6285H22.8565C23.5879 19.6285 23.9294 19.2597 23.7342 18.547C23.515 17.8343 22.6858 16.8022 21.6129 15.5735C21.0278 14.8857 20.1502 14.1236 19.8821 13.7548C19.5166 13.2632 19.614 13.0666 19.8821 12.6244C19.8576 12.6244 22.9299 8.24947 23.2465 6.77326" fill="#183245"/>
</svg>
