<svg width="175" height="74" viewBox="0 0 175 74" fill="none" xmlns="http://www.w3.org/2000/svg">
<g clip-path="url(#clip0)">
<path d="M96.7119 56.7997C96.7119 57.3828 96.6142 57.8687 96.3698 58.2574C96.1255 58.6461 95.8323 59.0348 95.4413 59.2777C95.0504 59.5693 94.6105 59.7636 94.073 59.958C93.5843 60.1523 93.0467 60.2495 92.5092 60.3467C91.9716 60.4439 91.434 60.4924 90.8965 60.541C90.3589 60.5896 89.8702 60.5896 89.4304 60.5896H84.9345L86.4005 59.0348V47.2278L85.0322 45.673H88.0132C88.5019 45.673 88.9906 45.673 89.5282 45.673C90.0657 45.673 90.6033 45.7216 91.1408 45.8188C91.6784 45.916 92.1671 46.0131 92.6558 46.1589C93.1445 46.3047 93.5843 46.5476 93.9264 46.8391C94.2684 47.1307 94.5617 47.4708 94.806 47.9081C95.0504 48.3454 95.1481 48.8313 95.1481 49.4629C95.1481 49.9488 95.0504 50.3861 94.9037 50.7748C94.7083 51.1635 94.5128 51.455 94.2196 51.7466C93.9264 52.0381 93.5843 52.2324 93.1933 52.4268C92.8024 52.6211 92.3626 52.7669 91.9227 52.8641L91.3852 53.0098L91.9716 53.0584C92.5092 53.107 93.0956 53.2528 93.6332 53.3986C94.1707 53.5443 94.7083 53.7387 95.1481 54.0302C95.5879 54.3217 95.9789 54.6619 96.2232 55.0991C96.5653 55.585 96.7119 56.1195 96.7119 56.7997ZM87.9155 53.0098H88.453C89.0395 53.0098 89.6259 52.9613 90.2612 52.9127C90.8476 52.8155 91.434 52.6697 91.9227 52.4268C92.4114 52.1838 92.8513 51.8437 93.1445 51.3578C93.4865 50.872 93.6332 50.2889 93.6332 49.5115C93.6332 48.6369 93.4377 48.0053 93.0956 47.5194C92.7535 47.0335 92.3137 46.6934 91.7761 46.4504C91.2386 46.2075 90.6521 46.0617 89.968 46.0131C89.3327 45.9645 88.6485 45.9645 88.0132 45.9645H87.9155V53.0098V53.0098ZM87.9155 58.9862C87.9155 59.5207 88.0621 59.8608 88.4042 60.0552C88.6974 60.2495 89.0883 60.3467 89.5282 60.3467C90.1146 60.3467 90.701 60.2981 91.3363 60.2495C91.9716 60.1523 92.558 60.0066 93.1445 59.7636C93.682 59.5207 94.1707 59.132 94.5128 58.6947C94.8549 58.2088 95.0504 57.6257 95.0504 56.8483C95.0504 56.0709 94.9037 55.4393 94.5617 54.9534C94.2196 54.4675 93.7798 54.1274 93.2911 53.8844C92.7535 53.6415 92.2159 53.4957 91.5806 53.3986C90.9454 53.3014 90.3589 53.3014 89.7725 53.3014C89.4793 53.3014 89.1861 53.3014 88.9417 53.3014C88.6485 53.3014 88.4042 53.3014 88.111 53.3014H88.0132V58.9862H87.9155Z" fill="#294053"/>
<path d="M108.538 47.2278L108.343 45.7216H111.177C111.031 45.8188 110.884 45.916 110.64 46.0617C110.444 46.2075 110.2 46.3047 109.955 46.4504C109.711 46.5962 109.516 46.742 109.32 46.8391C109.125 46.9849 108.978 47.0821 108.88 47.1792L103.749 53.4957H105.264L109.32 59.2291L111.421 60.6382H106.339L107.61 59.3749L103.602 53.6415L101.159 56.654V59.1806L102.674 60.6868H98.2268L99.7418 59.1806V47.1307L98.2757 45.673H102.772L101.306 47.1307V56.1195L108.538 47.2278Z" fill="#294053"/>
<path d="M117.579 59.132L117.97 60.6382H114.549L116.064 59.132L118.947 54.0302L114.598 47.1792L112.692 45.7216H117.432L116.26 46.9849L120.462 53.5443L124.518 47.0821L123.639 45.673H127.011L124.812 47.0821L120.413 54.0302L117.579 59.132Z" fill="#294053"/>
<path d="M138.055 59.5207C137.42 59.958 136.687 60.3467 135.954 60.5896C135.172 60.8326 134.439 60.9297 133.608 60.9297C132.484 60.9297 131.409 60.7354 130.48 60.3467C129.552 59.958 128.721 59.4235 128.037 58.7433C127.353 58.063 126.815 57.237 126.473 56.2653C126.082 55.3421 125.935 54.2731 125.935 53.1556C125.935 52.0381 126.131 51.0177 126.473 50.046C126.864 49.0742 127.353 48.2482 128.037 47.568C128.721 46.8877 129.503 46.3532 130.48 45.9645C131.409 45.5758 132.435 45.3815 133.608 45.3815C133.95 45.3815 134.341 45.4301 134.732 45.4787C135.123 45.5272 135.514 45.6244 135.954 45.7702C136.345 45.8674 136.736 46.0131 137.078 46.2075C137.42 46.4018 137.762 46.5962 138.055 46.7905L137.86 49.1228L133.657 45.673H133.608C132.582 45.673 131.702 45.916 130.92 46.3533C130.138 46.7905 129.552 47.3736 129.063 48.1024C128.574 48.8313 128.183 49.6087 127.939 50.5318C127.695 51.4064 127.597 52.3296 127.597 53.2042C127.597 54.0788 127.695 55.002 127.939 55.8765C128.183 56.7511 128.574 57.5771 129.063 58.306C129.552 59.0348 130.187 59.6178 130.92 60.0551C131.702 60.4924 132.582 60.7354 133.608 60.7354C134.145 60.7354 134.634 60.6382 135.123 60.4924C135.563 60.2981 136.003 60.1037 136.345 59.8122C136.687 59.5207 137.029 59.1806 137.273 58.7433C137.517 58.3546 137.762 57.9173 137.957 57.4314L138.055 59.5207ZM141.036 59.132L142.404 60.5896H139.081L140.792 59.132L143.382 53.35C142.502 53.0584 141.671 52.8641 140.743 52.7183C139.863 52.5725 138.935 52.524 138.006 52.524C137.517 52.524 137.029 52.6211 136.589 52.7669C136.149 52.9613 135.758 53.1556 135.367 53.4471C134.976 53.6901 134.634 53.9816 134.341 54.3217C134.048 54.6618 133.755 54.9534 133.461 55.1963L132.044 53.5929C133.95 52.6697 135.905 52.2324 137.957 52.2324C138.886 52.2324 139.814 52.281 140.743 52.4268C141.671 52.5725 142.551 52.7669 143.431 53.0584L146.167 46.8877L145.581 45.673H147.291L153.253 59.0348L155.013 60.5896H150.37L151.689 59.132L150.908 57.3828C149.784 56.5082 148.66 55.7794 147.438 55.0991C146.216 54.4189 144.946 53.8358 143.626 53.3985L141.036 59.132ZM143.724 53.1556C144.946 53.5443 146.167 54.0788 147.34 54.7104C148.513 55.3421 149.588 56.0709 150.663 56.8483L146.363 47.2764L143.724 53.1556Z" fill="#294053"/>
<path d="M118.556 59.2292H118.361L125.398 47.3736H125.593L118.556 59.2292Z" fill="#294053"/>
<path d="M110.64 59.1806H110.444L106.241 53.4472H106.437L110.64 59.1806Z" fill="#294053"/>
<path d="M154.28 58.889H154.084L148.317 45.673H148.464L154.28 58.889Z" fill="#294053"/>
<path d="M4.64256 69.3355H4.78917L4.8869 70.453C4.93577 70.8903 4.98464 71.2791 5.03351 71.6678L5.18012 72.7367L5.32672 73.8542H5.18012C5.13125 73.8542 5.13125 73.8542 5.08238 73.8542H4.98464H4.83803H4.69143C4.69143 73.6599 4.69143 73.4655 4.64256 73.174C4.64256 73.0282 4.59369 72.8825 4.59369 72.7367L4.54482 71.9107L4.44708 71.1333C4.39821 70.7932 4.39821 70.5988 4.34934 70.453C4.20274 70.7446 4.05613 70.9875 3.95839 71.1819C3.81178 71.4248 3.71405 71.6192 3.61631 71.8135C3.51857 71.9593 3.4697 72.1051 3.42083 72.2022C3.42083 72.2508 3.32309 72.348 3.22536 72.5909C3.17649 72.6881 3.12762 72.7853 3.02988 72.9796C2.88327 73.3198 2.6878 73.6599 2.59006 73.9028H2.54119L2.15024 73.1254C2.0525 72.9796 1.95476 72.7853 1.85702 72.5424C1.75928 72.348 1.66155 72.1051 1.51494 71.8621L0.781904 70.453C0.781904 70.6474 0.733035 70.7932 0.733035 70.9389C0.733035 71.0847 0.684166 71.2791 0.684166 71.4248L0.586428 72.3966L0.48869 73.3198C0.48869 73.3684 0.48869 73.4655 0.48869 73.6113C0.48869 73.7571 0.48869 73.8542 0.48869 73.9028H0.390952C0.342083 73.9028 0.342083 73.9028 0.342083 73.9028H0.244345H0.146607H0.0977381H0L0.195476 72.5424L0.439821 70.6474C0.537559 70.0157 0.586428 69.5785 0.586428 69.3355H0.781904L1.27059 70.3073L1.61268 70.9389L2.10137 71.8135C2.19911 72.0079 2.29684 72.2022 2.39458 72.2994C2.49232 72.4452 2.59006 72.6395 2.6878 72.8339L3.22536 71.9107L3.90952 70.6474C4.00726 70.453 4.105 70.2587 4.20274 70.1129C4.30047 69.9672 4.34934 69.8214 4.44708 69.6756C4.54482 69.5299 4.59369 69.4327 4.64256 69.3355Z" fill="#294053"/>
<path d="M8.20994 69.3355V71.3762H8.79637C9.23619 71.3762 9.57828 71.4248 9.82262 71.4734C10.067 71.522 10.2624 71.6678 10.3602 71.8135C10.4579 71.9593 10.5068 72.2022 10.5068 72.4452C10.5068 72.8339 10.409 73.1254 10.1647 73.3683C9.92036 73.5627 9.57828 73.7085 9.08959 73.8056C9.04072 73.8056 8.94298 73.8056 8.7475 73.8056C8.6009 73.8056 8.40542 73.8056 8.16107 73.8056C8.11221 73.8056 8.06334 73.8056 7.9656 73.8056C7.86786 73.8056 7.81899 73.8056 7.81899 73.8056H7.57465V69.2383H7.72125H7.86786H7.9656L8.20994 69.3355ZM8.20994 71.6678V73.6113H8.89411C9.13846 73.6113 9.28506 73.5141 9.48054 73.4169C9.62714 73.3198 9.77375 73.174 9.82262 73.0282C9.92036 72.8825 9.96923 72.6881 9.96923 72.4938C9.96923 72.2508 9.92036 72.0565 9.77375 71.9107C9.62715 71.7649 9.48054 71.6678 9.18732 71.6192C9.13845 71.6192 9.08959 71.6192 9.04072 71.6192C8.99185 71.6192 8.89411 71.6192 8.79637 71.6192H8.45429H8.20994V71.6678ZM11.1421 73.9028V69.3355C11.2398 69.3355 11.3376 69.3355 11.4353 69.3355C11.5819 69.3355 11.6796 69.3355 11.7285 69.3355V73.9028H11.6308C11.5819 73.9028 11.5819 73.9028 11.533 73.9028H11.4353H11.3376H11.2398H11.1421Z" fill="#294053"/>
<path d="M18.9612 70.0643C18.9612 70.0643 18.8635 70.2587 18.7169 70.5988C18.668 70.7446 18.5703 70.9389 18.5214 71.0847C18.4725 71.2305 18.3748 71.3762 18.3259 71.522C18.1793 71.9107 17.9838 72.2994 17.8372 72.7367C17.6906 73.1254 17.544 73.5141 17.4463 73.9028H17.2997H17.2019H17.1042H17.0553H16.9576L17.544 72.6881C17.6906 72.348 17.8372 72.0079 17.9838 71.6678C18.1305 71.3762 18.2771 71.0361 18.4237 70.6474C18.7169 70.0157 18.8635 69.5785 18.9612 69.3355H19.2544L19.792 70.6474L20.6228 72.5909C20.916 73.3198 21.1115 73.7571 21.2092 73.9028H21.0626H21.0137C21.0137 73.9028 21.0137 73.9028 20.9649 73.9028H20.8671H20.7694H20.6716H20.525L20.2807 73.2712L19.792 72.0079L19.3033 70.8418L19.0101 70.1129L18.9612 70.0643Z" fill="#294053"/>
<path d="M25.2164 71.8621L25.4608 71.3276L25.8517 70.5988L26.1938 69.87C26.1938 69.8214 26.2427 69.7242 26.3404 69.5785C26.3893 69.4813 26.4381 69.3841 26.4381 69.3355C26.487 69.3355 26.5847 69.3355 26.6825 69.3355H26.7802H26.9268L26.5847 69.9186L25.8028 71.4248L24.9721 73.0768L24.5811 73.8542C24.4834 73.8542 24.4345 73.8542 24.3856 73.8542C24.2879 73.8542 24.1902 73.8542 24.0924 73.8542C24.239 73.6113 24.3856 73.3683 24.5811 73.0768L24.9232 72.4938L24.4345 71.9107L23.8481 71.0361L23.1639 70.0158C23.0173 69.8214 22.9196 69.6756 22.8218 69.5299C22.7241 69.3841 22.6752 69.3355 22.6264 69.2869H23.0662H23.2128H23.4571C23.7503 69.7728 24.0436 70.2101 24.2879 70.5988C24.5811 71.0361 24.8743 71.4248 25.1675 71.8621H25.2164Z" fill="#294053"/>
<path d="M31.9603 71.2305V69.3355H32.1069H32.2535H32.3513H32.5467V73.9028H32.449C32.4001 73.9028 32.4001 73.9028 32.3513 73.9028H32.2535H32.1069H31.9603V71.6192C31.8626 71.6678 31.6671 71.7649 31.5205 71.8135C31.4227 71.8621 31.3739 71.8621 31.2761 71.9107C31.1784 71.9593 31.0807 71.9593 30.9341 72.0079C30.7386 72.0565 30.4942 72.0565 30.2988 72.0565C30.0544 72.0565 29.8589 72.0079 29.6146 71.9593C29.3702 71.9107 29.1748 71.7649 29.0282 71.6192C28.8816 71.4734 28.7838 71.279 28.7838 71.0361V69.3841H28.9304H29.077H29.1748H29.3702V71.0361C29.3702 71.279 29.468 71.4734 29.7123 71.5706C29.9567 71.6678 30.201 71.7164 30.5431 71.7164C30.7874 71.7164 31.0318 71.6678 31.2761 71.5706C31.5694 71.4734 31.7648 71.3762 31.9603 71.2305Z" fill="#294053"/>
<path d="M35.6744 73.5627H37.1893V69.3355C37.287 69.3355 37.3848 69.3355 37.4825 69.3355C37.6291 69.3355 37.7269 69.3355 37.7757 69.3355V73.5627H39.2907V69.3355C39.3884 69.3355 39.4861 69.3355 39.5839 69.3355C39.6816 69.3355 39.7794 69.3355 39.8771 69.3355V73.9028C39.7305 73.9028 39.4861 73.9028 39.2418 73.9028C38.9975 73.9028 38.7042 73.9028 38.3622 73.9028C38.0201 73.9028 37.7757 73.9028 37.4825 73.9028H35.9676C35.821 73.9028 35.6744 73.9028 35.43 73.9028C35.2345 73.9028 35.1368 73.9028 35.0879 73.9028V69.3355C35.1857 69.3355 35.2834 69.3355 35.3811 69.3355C35.4789 69.3355 35.5766 69.3355 35.6744 69.3355V73.5627Z" fill="#294053"/>
<path d="M42.4184 73.9028V69.3355C42.4673 69.3355 42.565 69.3355 42.7117 69.3355H43.0049V72.8339H43.0537L46.1325 69.3355H46.4257V73.9028C46.328 73.9028 46.2302 73.9028 46.1325 73.9028C46.0836 73.9028 45.9859 73.9028 45.8393 73.9028V70.2587H45.7904L43.0049 73.5141C42.8583 73.6599 42.7605 73.8057 42.6628 73.9028H42.4184Z" fill="#294053"/>
<path d="M49.5533 69.627V71.3276H50.5795H50.775H50.9705H51.1659V71.4248V71.522V71.5706V71.6678H50.9705H50.775H50.5795H49.5533V73.6113C49.6021 73.6113 49.7976 73.6113 50.0908 73.6113C50.4329 73.6113 50.6284 73.6113 50.775 73.6113C50.8727 73.6113 50.9705 73.6113 51.0682 73.6113C51.1659 73.6113 51.2637 73.5627 51.4103 73.5627V73.6113V73.6599V73.7085C51.4103 73.7571 51.4103 73.8056 51.4103 73.8056V73.9028H48.9668V69.3355H51.3614V69.4327V69.5299V69.627V69.7242C51.2637 69.7242 51.1659 69.6756 51.0682 69.6756C50.9705 69.6756 50.8727 69.6756 50.7261 69.6756H50.0419H49.5533V69.627Z" fill="#294053"/>
<path d="M56.2971 72.5909V72.2508H62.9921V72.5909H56.2971Z" fill="#294053"/>
<path d="M68.1724 69.3355H72.1796V73.9028H72.0819C72.033 73.9028 72.033 73.9028 71.9842 73.9028H71.8864H71.7887H71.6909H71.5932V69.6756C71.4466 69.6756 71.2022 69.6756 70.8602 69.6756C70.5669 69.6756 70.3226 69.6756 70.176 69.6756C70.0294 69.6756 69.785 69.6756 69.4918 69.6756C69.1986 69.6756 68.9543 69.6756 68.7588 69.6756V73.9028H68.6611C68.6122 73.9028 68.6122 73.9028 68.5633 73.9028H68.4656H68.319H68.1724V69.3355Z" fill="#294053"/>
<path d="M75.3072 71.8135V73.9028H75.2094C75.1606 73.9028 75.1606 73.9028 75.1117 73.9028H75.014H74.8673H74.7207V69.3355H75.9425C76.3823 69.3355 76.7244 69.3841 76.9687 69.4327C77.2131 69.4813 77.4085 69.627 77.5063 69.7728C77.604 69.9186 77.6529 70.1615 77.6529 70.4045C77.6529 70.696 77.604 70.8903 77.5063 71.0847C77.4085 71.2791 77.2619 71.4248 77.0176 71.522C76.8221 71.6192 76.5289 71.7163 76.1868 71.7649C76.1379 71.7649 76.0891 71.7649 76.0402 71.7649C75.9913 71.7649 75.8936 71.7649 75.7959 71.7649H75.747H75.6981H75.6493H75.6004H75.5515H75.5026H75.4049H75.3072V71.8135ZM75.3072 69.5785V71.522H75.6004C75.6004 71.522 75.6493 71.522 75.747 71.522C75.8447 71.522 75.8936 71.522 75.9425 71.522C76.1868 71.522 76.3334 71.4248 76.5289 71.3276C76.6755 71.2305 76.8221 71.0847 76.871 70.9389C76.9198 70.7932 77.0176 70.5988 77.0176 70.4045C77.0176 70.2587 76.9687 70.1129 76.9198 69.9672C76.871 69.8214 76.7732 69.7242 76.6755 69.6756C76.5778 69.5785 76.4312 69.5299 76.2357 69.5299C76.2357 69.5299 76.1379 69.5299 76.0402 69.5299C75.9425 69.5299 75.7959 69.5299 75.6981 69.5299C75.6004 69.5299 75.5026 69.5299 75.4538 69.5299C75.4049 69.5299 75.356 69.5785 75.3072 69.5785Z" fill="#294053"/>
<path d="M82.1 74C81.7579 74 81.4158 73.9514 81.0737 73.8542C80.7805 73.7571 80.4873 73.5627 80.2918 73.3684C80.0964 73.174 79.9009 72.9311 79.8032 72.5909C79.7543 72.4452 79.7054 72.2994 79.6565 72.1536C79.6077 72.0079 79.6077 71.8135 79.6077 71.6678C79.6077 71.3276 79.6565 70.9875 79.8032 70.696C79.9498 70.4045 80.0964 70.1615 80.3407 69.9186C80.5851 69.7242 80.8294 69.5785 81.1226 69.4327C81.4158 69.3355 81.7579 69.2869 82.1 69.2869C82.4421 69.2869 82.7353 69.3355 83.0285 69.4327C83.3217 69.5299 83.6149 69.6756 83.8593 69.87C84.1036 70.0644 84.2991 70.3073 84.4457 70.5988C84.5923 70.8904 84.6412 71.2305 84.6412 71.6192C84.6412 72.1051 84.5434 72.5424 84.2991 72.8825C84.1036 73.2712 83.7615 73.5627 83.3706 73.7571C82.9796 73.9514 82.5887 74 82.1 74ZM83.957 71.5706C83.957 71.3276 83.957 71.1819 83.9081 71.0361C83.9081 70.8903 83.8593 70.7446 83.7615 70.5502C83.7127 70.4045 83.6149 70.2587 83.5172 70.1129C83.4194 69.9672 83.2728 69.87 83.1262 69.7728C82.9796 69.6756 82.833 69.6271 82.6376 69.5299C82.4421 69.4327 82.2955 69.4327 82.1 69.4327C81.8068 69.4327 81.5624 69.4813 81.3181 69.5785C81.0737 69.6756 80.8783 69.8214 80.7317 70.0158C80.5851 70.2101 80.4384 70.4531 80.3407 70.7446C80.243 71.0361 80.1941 71.3276 80.1941 71.6678C80.1941 72.0079 80.243 72.2994 80.3407 72.5424C80.4384 72.7853 80.5851 73.0282 80.7317 73.174C80.9271 73.3684 81.1226 73.4655 81.3181 73.5627C81.5136 73.6599 81.7579 73.7085 82.0511 73.7085C82.3443 73.7085 82.6376 73.6599 82.8819 73.5141C83.1262 73.3684 83.3217 73.2226 83.4683 72.9796C83.6149 72.7367 83.7127 72.4938 83.8104 72.2508C83.957 72.0079 83.957 71.7649 83.957 71.5706Z" fill="#294053"/>
<path d="M90.4077 73.174L90.3588 73.6113C90.2122 73.7085 90.0656 73.757 89.919 73.8056C89.7724 73.8542 89.5769 73.9028 89.4303 73.9028C89.2348 73.9514 89.0882 73.9514 88.8928 73.9514C88.5018 73.9514 88.2086 73.9028 87.9154 73.8056C87.6222 73.7085 87.3778 73.5141 87.1823 73.3198C86.9869 73.1254 86.8403 72.8339 86.6936 72.5423C86.547 72.2508 86.547 71.9107 86.547 71.5706C86.547 71.0847 86.6448 70.6474 86.8891 70.3073C87.1335 69.9672 87.4267 69.6756 87.8176 69.4813C88.2086 69.2869 88.6484 69.1897 89.0882 69.1897C89.2348 69.1897 89.4303 69.1897 89.5769 69.2383C89.7235 69.2383 89.919 69.2869 90.0656 69.3355C90.2122 69.3841 90.3588 69.4327 90.5054 69.4813C90.4566 69.627 90.4077 69.7728 90.3588 70.0158H90.31C90.2611 69.9672 90.1634 69.87 90.0656 69.7728C89.9679 69.6756 89.8213 69.627 89.6258 69.5299C89.4303 69.4327 89.2348 69.4327 89.0394 69.4327C88.6484 69.4327 88.3063 69.5299 88.0131 69.7242C87.7199 69.9186 87.5244 70.1615 87.3778 70.5016C87.2312 70.8418 87.1823 71.1819 87.1823 71.5706C87.1823 72.0079 87.2801 72.348 87.4267 72.6881C87.5733 73.0282 87.7688 73.2712 88.062 73.4169C88.3552 73.5627 88.6484 73.6599 88.9905 73.6599C89.2348 73.6599 89.4303 73.6113 89.6258 73.5627C89.8213 73.5141 89.9679 73.4169 90.1145 73.3198C90.2122 73.3198 90.31 73.2226 90.4077 73.174Z" fill="#294053"/>
<path d="M94.2683 69.6756V73.9028C94.1705 73.9028 94.0728 73.9028 93.9751 73.9028C93.8773 73.9028 93.7796 73.9028 93.6819 73.9028V69.6756C93.242 69.6756 92.7045 69.7242 92.2158 69.7728V69.6756V69.5785V69.5299V69.4813V69.3841H95.6855V69.4813V69.5785V69.6756V69.7728L95.0502 69.7242C94.9525 69.7242 94.8547 69.7242 94.757 69.7242C94.5126 69.6756 94.366 69.6756 94.2683 69.6756Z" fill="#294053"/>
<path d="M99.9372 74C99.5951 74 99.2531 73.9514 98.911 73.8542C98.6178 73.7571 98.3245 73.5627 98.1291 73.3684C97.9336 73.174 97.7381 72.9311 97.6404 72.5909C97.5915 72.4452 97.5426 72.2994 97.4938 72.1536C97.4449 72.0079 97.4449 71.8135 97.4449 71.6678C97.4449 71.3276 97.4938 70.9875 97.6404 70.696C97.787 70.4045 97.9336 70.1615 98.1779 69.9186C98.4223 69.7242 98.6666 69.5785 98.9598 69.4327C99.2531 69.3355 99.5951 69.2869 99.9372 69.2869C100.279 69.2869 100.573 69.3355 100.866 69.4327C101.159 69.5299 101.452 69.6756 101.697 69.87C101.941 70.0644 102.136 70.3073 102.283 70.5988C102.43 70.8904 102.478 71.2305 102.478 71.6192C102.478 72.1051 102.381 72.5424 102.136 72.8825C101.941 73.2712 101.599 73.5627 101.208 73.7571C100.817 73.9514 100.426 74 99.9372 74ZM101.843 71.5706C101.843 71.3276 101.843 71.1819 101.794 71.0361C101.794 70.8903 101.745 70.7446 101.648 70.5502C101.599 70.4045 101.501 70.2587 101.403 70.1129C101.306 69.9672 101.159 69.87 101.012 69.7728C100.866 69.6756 100.719 69.6271 100.524 69.5299C100.328 69.4327 100.182 69.4327 99.9861 69.4327C99.6929 69.4327 99.4485 69.4813 99.2042 69.5785C98.9598 69.6756 98.7644 69.8214 98.6178 70.0158C98.4712 70.2101 98.3245 70.4531 98.2268 70.7446C98.1291 71.0361 98.0802 71.3276 98.0802 71.6678C98.0802 72.0079 98.1291 72.2994 98.2268 72.5424C98.3245 72.7853 98.4712 73.0282 98.6178 73.174C98.8132 73.3684 99.0087 73.4655 99.2042 73.5627C99.3997 73.6599 99.644 73.7085 99.9372 73.7085C100.23 73.7085 100.524 73.6599 100.768 73.5141C101.012 73.3684 101.208 73.2226 101.354 72.9796C101.501 72.7367 101.599 72.4938 101.697 72.2508C101.794 72.0079 101.843 71.7649 101.843 71.5706Z" fill="#294053"/>
<path d="M107.903 69.3355H111.91V73.9028H111.812C111.763 73.9028 111.763 73.9028 111.715 73.9028H111.617H111.519H111.421H111.324V69.6756C111.177 69.6756 110.933 69.6756 110.591 69.6756C110.297 69.6756 110.053 69.6756 109.906 69.6756C109.76 69.6756 109.515 69.6756 109.222 69.6756C108.929 69.6756 108.685 69.6756 108.489 69.6756V73.9028H108.391C108.343 73.9028 108.343 73.9028 108.294 73.9028H108.196H108.049H107.903V69.3355Z" fill="#294053"/>
<path d="M116.65 74C116.308 74 115.966 73.9514 115.624 73.8542C115.331 73.7571 115.038 73.5627 114.842 73.3684C114.647 73.174 114.451 72.9311 114.354 72.5909C114.305 72.4452 114.256 72.2994 114.207 72.1536C114.158 72.0079 114.158 71.8135 114.158 71.6678C114.158 71.3276 114.207 70.9875 114.354 70.696C114.5 70.4045 114.647 70.1615 114.891 69.9186C115.136 69.7242 115.38 69.5785 115.673 69.4327C115.966 69.3355 116.308 69.2869 116.65 69.2869C116.993 69.2869 117.286 69.3355 117.579 69.4327C117.872 69.5299 118.165 69.6756 118.41 69.87C118.654 70.0644 118.85 70.3073 118.996 70.5988C119.143 70.8904 119.192 71.2305 119.192 71.6192C119.192 72.1051 119.094 72.5424 118.85 72.8825C118.654 73.2712 118.312 73.5627 117.921 73.7571C117.53 73.9514 117.139 74 116.65 74ZM118.556 71.5706C118.556 71.3276 118.556 71.1819 118.507 71.0361C118.507 70.8903 118.459 70.7446 118.361 70.5502C118.312 70.4045 118.214 70.2587 118.117 70.1129C118.019 69.9672 117.872 69.87 117.726 69.7728C117.579 69.6756 117.432 69.6271 117.237 69.5299C117.041 69.4327 116.895 69.4327 116.699 69.4327C116.406 69.4327 116.162 69.4813 115.917 69.5785C115.673 69.6756 115.478 69.8214 115.331 70.0158C115.184 70.2101 115.038 70.4531 114.94 70.7446C114.842 71.0361 114.793 71.3276 114.793 71.6678C114.793 72.0079 114.842 72.2994 114.94 72.5424C115.038 72.7853 115.184 73.0282 115.331 73.174C115.526 73.3684 115.722 73.4655 115.917 73.5627C116.113 73.6599 116.357 73.7085 116.65 73.7085C116.944 73.7085 117.237 73.6599 117.481 73.5141C117.726 73.3684 117.921 73.2226 118.068 72.9796C118.214 72.7367 118.312 72.4938 118.41 72.2508C118.507 72.0079 118.556 71.7649 118.556 71.5706Z" fill="#294053"/>
<path d="M121.439 69.3355H125.447V73.9028H125.349C125.3 73.9028 125.3 73.9028 125.251 73.9028H125.154H125.056H124.958H124.86V69.6756C124.714 69.6756 124.469 69.6756 124.127 69.6756C123.834 69.6756 123.59 69.6756 123.443 69.6756C123.296 69.6756 123.052 69.6756 122.759 69.6756C122.466 69.6756 122.221 69.6756 122.026 69.6756V73.9028H121.928C121.879 73.9028 121.879 73.9028 121.83 73.9028H121.733H121.586H121.439V69.3355Z" fill="#294053"/>
<path d="M128.574 71.8135V73.9028H128.477C128.428 73.9028 128.428 73.9028 128.379 73.9028H128.281H128.135H127.988V69.3355H129.21C129.649 69.3355 129.992 69.3841 130.236 69.4327C130.48 69.4813 130.676 69.627 130.773 69.7728C130.871 69.9186 130.92 70.1615 130.92 70.4045C130.92 70.696 130.871 70.8903 130.773 71.0847C130.676 71.2791 130.529 71.4248 130.285 71.522C130.089 71.6192 129.796 71.7163 129.454 71.7649C129.405 71.7649 129.356 71.7649 129.307 71.7649C129.259 71.7649 129.161 71.7649 129.063 71.7649H129.014H128.965H128.916H128.868H128.819H128.77H128.672H128.574V71.8135ZM128.574 69.5785V71.522H128.868C128.868 71.522 128.916 71.522 129.014 71.522C129.112 71.522 129.161 71.522 129.21 71.522C129.454 71.522 129.601 71.4248 129.796 71.3276C129.943 71.2305 130.089 71.0847 130.138 70.9389C130.187 70.7932 130.285 70.5988 130.285 70.4045C130.285 70.2587 130.236 70.1129 130.187 69.9672C130.138 69.8214 130.04 69.7242 129.943 69.6756C129.845 69.5785 129.698 69.5299 129.503 69.5299C129.503 69.5299 129.405 69.5299 129.307 69.5299C129.21 69.5299 129.063 69.5299 128.965 69.5299C128.868 69.5299 128.77 69.5299 128.721 69.5299C128.672 69.5299 128.623 69.5785 128.574 69.5785Z" fill="#294053"/>
<path d="M135.367 74C135.025 74 134.683 73.9514 134.341 73.8542C134.048 73.7571 133.755 73.5627 133.559 73.3684C133.364 73.174 133.168 72.9311 133.07 72.5909C133.021 72.4452 132.973 72.2994 132.924 72.1536C132.875 72.0079 132.875 71.8135 132.875 71.6678C132.875 71.3276 132.924 70.9875 133.07 70.696C133.217 70.4045 133.364 70.1615 133.608 69.9186C133.852 69.7242 134.097 69.5785 134.39 69.4327C134.683 69.3355 135.025 69.2869 135.367 69.2869C135.709 69.2869 136.002 69.3355 136.296 69.4327C136.589 69.5299 136.882 69.6756 137.126 69.87C137.371 70.0644 137.566 70.3073 137.713 70.5988C137.86 70.8904 137.908 71.2305 137.908 71.6192C137.908 72.1051 137.811 72.5424 137.566 72.8825C137.371 73.2712 137.029 73.5627 136.638 73.7571C136.247 73.9514 135.856 74 135.367 74ZM137.273 71.5706C137.273 71.3276 137.273 71.1819 137.224 71.0361C137.224 70.8903 137.175 70.7446 137.078 70.5502C137.029 70.4045 136.931 70.2587 136.833 70.1129C136.736 69.9672 136.589 69.87 136.442 69.7728C136.296 69.6756 136.149 69.6271 135.954 69.5299C135.758 69.4327 135.612 69.4327 135.416 69.4327C135.123 69.4327 134.879 69.4813 134.634 69.5785C134.39 69.6756 134.194 69.8214 134.048 70.0158C133.901 70.2101 133.755 70.4531 133.657 70.7446C133.559 71.0361 133.51 71.3276 133.51 71.6678C133.51 72.0079 133.559 72.2994 133.657 72.5424C133.755 72.7853 133.901 73.0282 134.048 73.174C134.243 73.3684 134.439 73.4655 134.634 73.5627C134.83 73.6599 135.074 73.7085 135.367 73.7085C135.66 73.7085 135.954 73.6599 136.198 73.5141C136.442 73.3684 136.638 73.2226 136.784 72.9796C136.931 72.7367 137.029 72.4938 137.126 72.2508C137.224 72.0079 137.273 71.7649 137.273 71.5706Z" fill="#294053"/>
<path d="M140.156 73.9028V69.3355H142.893C142.893 69.3841 142.893 69.4327 142.893 69.5299C142.893 69.5785 142.893 69.6756 142.893 69.7242C142.795 69.7242 142.649 69.6756 142.551 69.6756C142.453 69.6756 142.356 69.6756 142.258 69.6756H141.476H140.743V71.3762H141.378C142.013 71.3762 142.502 71.4734 142.747 71.6678C143.04 71.8621 143.186 72.1536 143.186 72.5424C143.186 72.7853 143.137 73.0282 142.991 73.2226C142.844 73.4169 142.698 73.6113 142.453 73.7085C142.307 73.7571 142.209 73.8057 142.062 73.8542C141.916 73.9028 141.818 73.9028 141.671 73.9028H140.156V73.9028ZM140.743 71.5706V73.6113H141.427C141.671 73.6113 141.867 73.5627 142.013 73.4655C142.16 73.3684 142.307 73.2226 142.404 73.0768C142.502 72.9311 142.551 72.7367 142.551 72.5424C142.551 72.2994 142.502 72.1051 142.356 71.9107C142.209 71.7163 142.013 71.6192 141.769 71.6192C141.671 71.6192 141.525 71.6192 141.378 71.6192H141.085C141.036 71.6192 140.987 71.6192 140.938 71.6192C140.792 71.5706 140.743 71.5706 140.743 71.5706Z" fill="#294053"/>
<path d="M147.487 71.8621L147.731 71.3276L148.122 70.5988L148.464 69.87C148.464 69.8214 148.513 69.7242 148.611 69.5785C148.66 69.4813 148.708 69.3841 148.708 69.3355C148.757 69.3355 148.855 69.3355 148.953 69.3355H149.051H149.197L148.855 69.9186L148.073 71.4248L147.242 73.0768L146.851 73.8542C146.754 73.8542 146.705 73.8542 146.656 73.8542C146.558 73.8542 146.46 73.8542 146.363 73.8542C146.509 73.6113 146.656 73.3683 146.851 73.0768L147.194 72.4938L146.754 71.8621L146.167 70.9875L145.483 69.9672C145.337 69.7728 145.239 69.627 145.141 69.4813C145.043 69.3355 144.994 69.2869 144.946 69.2383H145.385H145.532H145.776C146.07 69.7242 146.363 70.1615 146.607 70.5502C146.9 70.9875 147.194 71.3762 147.487 71.8135V71.8621Z" fill="#294053"/>
<path d="M151.152 73.9028V69.3355C151.201 69.3355 151.299 69.3355 151.445 69.3355C151.592 69.3355 151.69 69.3355 151.738 69.3355V72.8339H151.787L154.866 69.3355H155.159V73.9028C155.062 73.9028 154.964 73.9028 154.866 73.9028C154.817 73.9028 154.719 73.9028 154.573 73.9028V70.2587H154.524L153.498 71.4248L152.081 73.0282L151.347 73.8542H151.152V73.9028ZM154.426 68.5095L154.573 68.8011C154.377 68.9468 154.133 68.9954 153.889 69.0926C153.644 69.1898 153.4 69.1898 153.156 69.1898C152.667 69.1898 152.227 69.044 151.787 68.8011L151.983 68.5095C152.325 68.7525 152.716 68.8496 153.204 68.8496C153.644 68.8496 154.084 68.7525 154.426 68.5095Z" fill="#294053"/>
<path d="M153.201 42.4077C151.84 37.9166 148.932 35.0251 144.105 33.6408C148.87 32.2566 151.84 29.3958 153.17 24.5663C154.532 29.3343 157.471 32.2874 162.266 33.6408C157.502 35.0251 154.594 37.8859 153.201 42.4077Z" fill="#EFAF84"/>
<path d="M142.528 41.7618C142.125 40.6236 141.383 39.8853 140.145 39.4854C141.383 39.0856 142.125 38.3473 142.497 37.0861C142.899 38.3165 143.61 39.0856 144.91 39.4547C143.672 39.8853 142.899 40.6236 142.528 41.7618Z" fill="#EFAF84"/>
<path d="M149.984 18.1373C150.293 18.8448 150.757 19.3677 151.624 19.6445C150.788 19.9214 150.293 20.4136 150.015 21.2749C149.736 20.4443 149.241 19.9522 148.437 19.6753C149.179 19.3369 149.705 18.8755 149.984 18.1373Z" fill="#EFAF84"/>
<path d="M160.379 42.2847C161.06 43.6382 161.06 43.6382 162.731 44.6841C161.586 45.084 160.813 45.7915 160.41 46.9296C159.977 45.7915 159.235 45.0532 158.09 44.6226C159.204 44.2534 159.946 43.4844 160.379 42.2847Z" fill="#EFAF84"/>
<path d="M149.21 26.1351C149.365 26.2582 149.489 26.412 149.644 26.535C149.86 27.1195 149.798 27.6732 149.458 28.1961C148.839 29.0882 148.035 29.8572 147.045 30.3494C146.581 30.5955 146.086 30.6263 145.621 30.2879C145.157 29.9495 145.188 29.5189 145.281 29.0267C145.405 28.8729 145.56 28.7498 145.683 28.596C146.147 28.473 146.642 28.3192 147.107 28.4422C147.694 28.596 147.756 28.4115 147.694 27.8885C147.54 26.6273 148.035 26.0736 149.21 26.1351ZM147.663 29.2113C147.137 29.0574 146.704 28.9652 146.271 29.0882C146.024 29.1497 145.776 29.2728 145.838 29.6111C145.9 29.9495 146.209 30.011 146.488 29.9495C146.89 29.8265 147.261 29.5804 147.663 29.2113ZM148.406 28.5345C148.777 28.1961 149.025 27.8885 149.149 27.4579C149.241 27.1503 149.21 26.8426 148.839 26.7504C148.499 26.6888 148.375 26.9657 148.313 27.2425C148.158 27.6424 148.189 28.0731 148.406 28.5345Z" fill="#EFAF84"/>
<path d="M95.6856 59.9094C96.0766 59.715 96.4187 59.4721 96.7119 59.2292C97.0051 58.9376 97.2494 58.5975 97.4449 58.1602C97.6404 57.7229 97.7381 57.237 97.7381 56.654C97.7381 55.9737 97.6404 55.4393 97.3961 55.002C97.2006 54.5647 96.9074 54.176 96.5653 53.933C96.2232 53.6415 95.8322 53.4471 95.3924 53.3014C95.0503 53.2042 94.2196 52.9127 93.8286 52.9127V53.0584C94.1707 53.107 94.9526 53.3014 95.3436 53.4471C95.7345 53.5929 96.1255 53.7873 96.4675 54.0788C96.8096 54.3703 97.054 54.7104 97.2983 55.1477C97.4938 55.585 97.5915 56.1195 97.5915 56.7512C97.5915 57.2856 97.4938 57.7715 97.3472 58.2088C97.1517 58.5975 96.9562 58.9376 96.663 59.2292C96.3698 59.5207 96.0277 59.715 95.6368 59.9094H95.6856ZM94.3662 46.2561C94.7571 46.4018 95.0503 46.6448 95.3436 46.8877C95.6368 47.1792 95.8322 47.5194 95.9789 47.9081C96.1255 48.3454 96.2232 48.8313 96.2232 49.4143C96.2232 49.9002 96.1743 50.3375 96.0277 50.6776C95.8811 51.0663 95.7345 51.3578 95.4902 51.6494C95.2947 51.9409 95.0015 52.1353 94.7083 52.3296C94.5128 52.4268 93.9752 52.7183 93.7797 52.8155V52.9613C94.073 52.8641 94.5616 52.6211 94.7571 52.4754C95.0503 52.281 95.3436 52.0381 95.539 51.7466C95.7834 51.455 95.93 51.1149 96.0766 50.7262C96.2232 50.3375 96.2721 49.9002 96.2721 49.3657C96.2721 48.7341 96.1743 48.1996 96.0277 47.8109C95.8322 47.3736 95.6368 47.0335 95.3436 46.742C95.0503 46.4504 94.7083 46.2075 94.3662 46.0617" fill="#294053"/>
<path d="M2.59004 59.2292L3.95837 60.6382H0.635277L2.29682 59.1806L3.51855 47.1792L2.39456 45.7216H4.93575L10.0181 58.5003L15.1494 45.7216H17.5928L16.4688 47.3736L17.6906 59.1806L19.3521 60.6382H14.7584L16.1756 59.2292L14.905 47.1792L10.2625 58.8404L11.4842 60.5896H9.18736L3.81176 47.2764L2.59004 59.2292Z" fill="#294053"/>
<path d="M21.9423 59.132L23.3106 60.5896H19.9875L21.6979 59.132L27.1224 46.8877L26.536 45.673H28.2952L34.2573 59.0348L36.0165 60.5896H31.374L32.6935 59.132L31.5695 56.7026H23.0174L21.9423 59.132ZM23.164 56.411H31.2762L27.2201 47.2764L23.164 56.411Z" fill="#294053"/>
<path d="M40.1215 59.132L41.6365 60.6382H37.0916L38.6066 59.132V46.0131V45.7216H46.3279L46.8655 48.3454L43.8356 46.0131H40.1215V59.132Z" fill="#294053"/>
<path d="M61.233 47.5194L50.775 60.5896H50.4329V47.1307L48.9668 45.673H52.2411L50.7261 47.0821V58.063L60.6954 45.6244H62.9922L61.4773 47.2764V59.0348L62.9922 60.541H59.6691L61.1841 59.0348V47.5194H61.233Z" fill="#294053"/>
<path d="M73.499 53.5443H71.7397L68.0745 59.3263L69.3451 60.5896H64.3116L66.413 59.1806L69.6872 54.0302L71.4465 53.4957H70.8112C70.2736 53.4957 69.6872 53.3986 69.1497 53.2042C68.6121 53.0098 68.1234 52.7669 67.6836 52.4268C67.2438 52.0867 66.9017 51.698 66.6085 51.2121C66.3153 50.7262 66.2175 50.1917 66.2175 49.5601C66.2175 48.8798 66.3641 48.2968 66.7062 47.8109C67.0483 47.325 67.4392 46.8877 67.9768 46.5962C68.4655 46.2561 69.0519 46.0617 69.6872 45.916C70.3225 45.7702 70.9089 45.673 71.5442 45.673H76.5289L75.0628 47.1307V59.0834L76.5778 60.5896H72.0329L73.5479 59.0834V53.5443H73.499ZM73.499 45.9645H72.0818C71.5442 45.9645 71.0067 46.0617 70.518 46.2075C70.0293 46.3532 69.5406 46.5962 69.1497 46.8877C68.7587 47.1792 68.4655 47.568 68.2211 48.0053C67.9768 48.4425 67.8791 48.977 67.8791 49.5601C67.8791 50.1431 67.9768 50.6776 68.2211 51.1149C68.4655 51.5522 68.7587 51.9409 69.1497 52.2324C69.5406 52.524 69.9804 52.7669 70.518 52.9127C71.0067 53.0584 71.5442 53.1556 72.0818 53.1556H73.499V45.9645Z" fill="#294053"/>
<path d="M41.0988 59.4235L40.9522 59.2291V47.3736H41.0988V59.4235Z" fill="#294053"/>
<path d="M52.1921 60.5896H51.9966L61.2817 48.8798L61.3794 48.977L52.1921 60.5896Z" fill="#294053"/>
<path d="M76.0402 59.2777L75.8936 59.132V47.4222L76.0402 47.2278V59.2777Z" fill="#294053"/>
<path d="M35.088 58.9376L34.7948 58.7433L29.0771 45.7216L29.2237 45.673L35.088 58.9376Z" fill="#294053"/>
<path d="M18.6679 59.2292L18.5213 59.0834L17.2996 47.325L17.4462 47.1793L18.6679 59.2292Z" fill="#294053"/>
</g>
<defs>
<clipPath id="clip0">
<rect width="175" height="74" fill="white"/>
</clipPath>
</defs>
</svg>
