<svg width="19" height="20" viewBox="0 0 19 20" fill="none" xmlns="http://www.w3.org/2000/svg">
<path d="M7.125 9.65027H5.54167V11.2336H7.125V9.65027ZM10.2917 9.65027H8.70833V11.2336H10.2917V9.65027ZM13.4583 9.65027H11.875V11.2336H13.4583V9.65027ZM15.0417 4.1086H14.25V2.52527H12.6667V4.1086H6.33333V2.52527H4.75V4.1086H3.95833C3.07958 4.1086 2.38292 4.8211 2.38292 5.69194L2.375 16.7753C2.375 17.6461 3.07958 18.3586 3.95833 18.3586H15.0417C15.9125 18.3586 16.625 17.6461 16.625 16.7753V5.69194C16.625 4.8211 15.9125 4.1086 15.0417 4.1086ZM15.0417 16.7753H3.95833V8.06694H15.0417V16.7753Z" fill="#EFAF84"/>
</svg>
