<svg width="128" height="54" viewBox="0 0 128 54" fill="none" xmlns="http://www.w3.org/2000/svg">
<g clip-path="url(#clip0)">
<path d="M70.7378 41.4485C70.7378 41.8739 70.6663 42.2285 70.4876 42.5122C70.3088 42.7958 70.0944 43.0795 69.8084 43.2567C69.5225 43.4695 69.2008 43.6113 68.8076 43.7531C68.4501 43.8949 68.057 43.9659 67.6638 44.0368C67.2706 44.1077 66.8774 44.1431 66.4842 44.1786C66.091 44.2141 65.7336 44.2141 65.4119 44.2141H62.1234L63.1957 43.0795V34.4636L62.1949 33.329H64.3753C64.7328 33.329 65.0902 33.329 65.4834 33.329C65.8766 33.329 66.2698 33.3644 66.6629 33.4353C67.0561 33.5062 67.4136 33.5772 67.771 33.6835C68.1285 33.7899 68.4501 33.9672 68.7004 34.1799C68.9506 34.3926 69.165 34.6408 69.3438 34.9599C69.5225 35.2791 69.594 35.6336 69.594 36.0946C69.594 36.4491 69.5225 36.7682 69.4152 37.0519C69.2723 37.3355 69.1293 37.5483 68.9148 37.761C68.7004 37.9737 68.4501 38.1156 68.1642 38.2574C67.8782 38.3992 67.5565 38.5056 67.2348 38.5765L66.8417 38.6829L67.2706 38.7183C67.6638 38.7538 68.0927 38.8601 68.4859 38.9665C68.8791 39.0729 69.2723 39.2147 69.594 39.4274C69.9157 39.6402 70.2016 39.8884 70.3803 40.2075C70.6305 40.5621 70.7378 40.9521 70.7378 41.4485ZM64.3038 38.6829H64.697C65.1259 38.6829 65.5549 38.6474 66.0195 38.612C66.4485 38.541 66.8774 38.4347 67.2348 38.2574C67.5923 38.0801 67.914 37.8319 68.1285 37.4773C68.3787 37.1228 68.4859 36.6973 68.4859 36.13C68.4859 35.4918 68.3429 35.0309 68.0927 34.6763C67.8425 34.3217 67.5208 34.0735 67.1276 33.8963C66.7344 33.719 66.3055 33.6126 65.8051 33.5771C65.3404 33.5417 64.84 33.5417 64.3753 33.5417H64.3038V38.6829V38.6829ZM64.3038 43.044C64.3038 43.434 64.411 43.6822 64.6613 43.824C64.8757 43.9659 65.1617 44.0368 65.4834 44.0368C65.9123 44.0368 66.3412 44.0013 66.8059 43.9659C67.2706 43.8949 67.6995 43.7886 68.1285 43.6113C68.5216 43.434 68.8791 43.1504 69.1293 42.8313C69.3795 42.4767 69.5225 42.0512 69.5225 41.4839C69.5225 40.9166 69.4152 40.4557 69.165 40.1011C68.9148 39.7466 68.5931 39.4984 68.2357 39.3211C67.8425 39.1438 67.4493 39.0374 66.9846 38.9665C66.52 38.8956 66.091 38.8956 65.6621 38.8956C65.4476 38.8956 65.2332 38.8956 65.0544 38.8956C64.84 38.8956 64.6613 38.8956 64.4468 38.8956H64.3753V43.044H64.3038Z" fill="#EAEBE7"/>
<path d="M79.3879 34.4636L79.2449 33.3644H81.3181C81.2108 33.4353 81.1036 33.5062 80.9249 33.6126C80.7819 33.719 80.6032 33.7899 80.4245 33.8963C80.2457 34.0026 80.1028 34.109 79.9598 34.1799C79.8168 34.2863 79.7096 34.3572 79.6381 34.4281L75.885 39.0374H76.993L79.9598 43.2213L81.4968 44.2495H77.7794L78.7087 43.3276L75.7777 39.1438L73.9905 41.3421V43.1858L75.0986 44.285H71.8459L72.9539 43.1858V34.3926L71.8816 33.329H75.1701L74.0977 34.3926V40.9521L79.3879 34.4636Z" fill="#EAEBE7"/>
<path d="M86.0006 43.1504L86.2865 44.2495H83.7844L84.8925 43.1504L87.0014 39.4274L83.8202 34.4281L82.4261 33.3644H85.8933L85.0355 34.2863L88.1095 39.0729L91.0762 34.3572L90.4328 33.329H92.8992L91.2907 34.3572L88.0737 39.4274L86.0006 43.1504Z" fill="#EAEBE7"/>
<path d="M100.977 43.434C100.513 43.7531 99.9765 44.0368 99.4404 44.214C98.8685 44.3913 98.3323 44.4622 97.7247 44.4622C96.9025 44.4622 96.1162 44.3204 95.437 44.0368C94.7579 43.7531 94.1502 43.3631 93.6498 42.8667C93.1494 42.3703 92.7562 41.7676 92.506 41.0584C92.22 40.3848 92.1128 39.6047 92.1128 38.7892C92.1128 37.9737 92.2558 37.2292 92.506 36.52C92.7919 35.8109 93.1494 35.2081 93.6498 34.7118C94.1502 34.2154 94.7221 33.8253 95.437 33.5417C96.1162 33.258 96.8668 33.1162 97.7247 33.1162C97.9749 33.1162 98.2608 33.1517 98.5468 33.1871C98.8327 33.2226 99.1187 33.2935 99.4404 33.3999C99.7263 33.4708 100.012 33.5771 100.262 33.719C100.513 33.8608 100.763 34.0026 100.977 34.1445L100.834 35.8464L97.7604 33.329H97.7247C96.974 33.329 96.3306 33.5062 95.7587 33.8253C95.1868 34.1445 94.7579 34.5699 94.4004 35.1018C94.043 35.6336 93.757 36.2009 93.5783 36.8746C93.3996 37.5128 93.3281 38.1865 93.3281 38.8247C93.3281 39.4629 93.3996 40.1366 93.5783 40.7748C93.757 41.413 94.043 42.0158 94.4004 42.5476C94.7579 43.0794 95.2226 43.5049 95.7587 43.824C96.3306 44.1431 96.974 44.3204 97.7247 44.3204C98.1178 44.3204 98.4753 44.2495 98.8327 44.1431C99.1544 44.0013 99.4761 43.8595 99.7263 43.6467C99.9765 43.434 100.227 43.1858 100.405 42.8667C100.584 42.5831 100.763 42.2639 100.906 41.9094L100.977 43.434ZM103.158 43.1504L104.159 44.214H101.728L102.979 43.1504L104.874 38.9311C104.23 38.7183 103.622 38.5765 102.943 38.4701C102.3 38.3638 101.621 38.3283 100.942 38.3283C100.584 38.3283 100.227 38.3992 99.9051 38.5056C99.5834 38.6474 99.2974 38.7892 99.0114 39.002C98.7255 39.1792 98.4753 39.392 98.2608 39.6402C98.0464 39.8884 97.8319 40.1011 97.6174 40.2784L96.5808 39.1083C97.9749 38.4347 99.4046 38.1156 100.906 38.1156C101.585 38.1156 102.264 38.151 102.943 38.2574C103.622 38.3638 104.266 38.5056 104.909 38.7183L106.911 34.2154L106.482 33.329H107.733L112.094 43.0794L113.381 44.214H109.985L110.95 43.1504L110.378 41.8739C109.556 41.2357 108.734 40.7039 107.84 40.2075C106.947 39.7111 106.017 39.2856 105.052 38.9665L103.158 43.1504ZM105.124 38.7892C106.017 39.0729 106.911 39.4629 107.769 39.9238C108.627 40.3848 109.413 40.9166 110.199 41.4839L107.054 34.499L105.124 38.7892Z" fill="#EAEBE7"/>
<path d="M86.7154 43.2213H86.5724L91.7196 34.5699H91.8626L86.7154 43.2213Z" fill="#EAEBE7"/>
<path d="M80.9249 43.1858H80.7819L77.7079 39.002H77.8509L80.9249 43.1858Z" fill="#EAEBE7"/>
<path d="M112.844 42.9731H112.701L108.484 33.329H108.591L112.844 42.9731Z" fill="#EAEBE7"/>
<path d="M3.3957 50.5962H3.50293L3.57442 51.4117C3.61016 51.7308 3.64591 52.0144 3.68165 52.2981L3.78889 53.0781L3.89612 53.8936H3.78889C3.75314 53.8936 3.75314 53.8936 3.7174 53.8936H3.64591H3.53868H3.43144C3.43144 53.7518 3.43144 53.61 3.3957 53.3972C3.3957 53.2909 3.35996 53.1845 3.35996 53.0781L3.32421 52.4754L3.25272 51.9081C3.21698 51.6599 3.21698 51.5181 3.18123 51.4117C3.074 51.6244 2.96677 51.8017 2.89528 51.9435C2.78805 52.1208 2.71656 52.2626 2.64507 52.4045C2.57358 52.5108 2.53784 52.6172 2.50209 52.6881C2.50209 52.7236 2.43061 52.7945 2.35912 52.9718C2.32337 53.0427 2.28763 53.1136 2.21614 53.2554C2.10891 53.5036 1.96593 53.7518 1.89444 53.9291H1.8587L1.57275 53.3618C1.50126 53.2554 1.42977 53.1136 1.35828 52.9363C1.28679 52.7945 1.2153 52.6172 1.10807 52.4399L0.571907 51.4117C0.571907 51.5535 0.536163 51.6599 0.536163 51.7662C0.536163 51.8726 0.500419 52.0144 0.500419 52.1208L0.42893 52.8299L0.357442 53.5036C0.357442 53.5391 0.357442 53.61 0.357442 53.7163C0.357442 53.8227 0.357442 53.8936 0.357442 53.9291H0.285954C0.250209 53.9291 0.250209 53.9291 0.250209 53.9291H0.178721H0.107233H0.0714884H0L0.142977 52.9363L0.321698 51.5535C0.393186 51.0926 0.42893 50.7735 0.42893 50.5962H0.571907L0.929349 51.3053L1.17956 51.7662L1.537 52.4045C1.60849 52.5463 1.67998 52.6881 1.75147 52.759C1.82295 52.8654 1.89444 53.0072 1.96593 53.149L2.35912 52.4754L2.85954 51.5535C2.93102 51.4117 3.00251 51.2699 3.074 51.1635C3.14549 51.0571 3.18123 50.9508 3.25272 50.8444C3.32421 50.738 3.35996 50.6671 3.3957 50.5962Z" fill="#EAEBE7"/>
<path d="M6.00503 50.5962V52.0854H6.43396C6.75565 52.0854 7.00586 52.1208 7.18459 52.1563C7.36331 52.1917 7.50628 52.2981 7.57777 52.4045C7.64926 52.5108 7.685 52.6881 7.685 52.8654C7.685 53.149 7.61352 53.3618 7.43479 53.5391C7.25607 53.6809 7.00586 53.7873 6.64842 53.8582C6.61268 53.8582 6.54119 53.8582 6.39821 53.8582C6.29098 53.8582 6.148 53.8582 5.96928 53.8582C5.93354 53.8582 5.89779 53.8582 5.82631 53.8582C5.75482 53.8582 5.71907 53.8582 5.71907 53.8582H5.54035V50.5253H5.64758H5.75482H5.82631L6.00503 50.5962ZM6.00503 52.2981V53.7163H6.50545C6.68417 53.7163 6.7914 53.6454 6.93438 53.5745C7.04161 53.5036 7.14884 53.3972 7.18459 53.2909C7.25607 53.1845 7.29182 53.0427 7.29182 52.9008C7.29182 52.7236 7.25607 52.5817 7.14884 52.4754C7.04161 52.369 6.93438 52.2981 6.71991 52.2626C6.68417 52.2626 6.64842 52.2626 6.61268 52.2626C6.57693 52.2626 6.50545 52.2626 6.43396 52.2626H6.18375H6.00503V52.2981ZM8.14968 53.9291V50.5962C8.22117 50.5962 8.29266 50.5962 8.36414 50.5962C8.47138 50.5962 8.54287 50.5962 8.57861 50.5962V53.9291H8.50712C8.47138 53.9291 8.47138 53.9291 8.43563 53.9291H8.36414H8.29266H8.22117H8.14968Z" fill="#EAEBE7"/>
<path d="M13.8687 51.128C13.8687 51.128 13.7973 51.2699 13.69 51.5181C13.6543 51.6244 13.5828 51.7662 13.5471 51.8726C13.5113 51.979 13.4398 52.0854 13.4041 52.1917C13.2968 52.4754 13.1539 52.759 13.0466 53.0781C12.9394 53.3618 12.8322 53.6454 12.7607 53.9291H12.6534H12.582H12.5105H12.4747H12.4032L12.8322 53.0427C12.9394 52.7945 13.0466 52.5463 13.1539 52.2981C13.2611 52.0854 13.3683 51.8372 13.4756 51.5535C13.69 51.0926 13.7973 50.7735 13.8687 50.5962H14.0832L14.4764 51.5535L15.0841 52.9718C15.2985 53.5036 15.4415 53.8227 15.513 53.9291H15.4057H15.37C15.37 53.9291 15.37 53.9291 15.3343 53.9291H15.2628H15.1913H15.1198H15.0126L14.8338 53.4682L14.4764 52.5463L14.119 51.6953L13.9045 51.1635L13.8687 51.128Z" fill="#EAEBE7"/>
<path d="M18.444 52.4399L18.6227 52.0499L18.9087 51.5181L19.1589 50.9862C19.1589 50.9508 19.1946 50.8798 19.2661 50.7735C19.3019 50.7026 19.3376 50.6317 19.3376 50.5962C19.3734 50.5962 19.4448 50.5962 19.5163 50.5962H19.5878H19.6951L19.4448 51.0217L18.8729 52.1208L18.2653 53.3263L17.9793 53.8936C17.9078 53.8936 17.8721 53.8936 17.8364 53.8936C17.7649 53.8936 17.6934 53.8936 17.6219 53.8936C17.7291 53.7163 17.8364 53.5391 17.9793 53.3263L18.2295 52.9009L17.8721 52.4754L17.4432 51.8372L16.9428 51.0926C16.8355 50.9508 16.764 50.8444 16.6925 50.738C16.6211 50.6317 16.5853 50.5962 16.5496 50.5607H16.8713H16.9785H17.1572C17.3717 50.9153 17.5862 51.2344 17.7649 51.5181C17.9793 51.8372 18.1938 52.1208 18.4083 52.4399H18.444Z" fill="#EAEBE7"/>
<path d="M23.3767 51.979V50.5962H23.4839H23.5912H23.6627H23.8056V53.9291H23.7342C23.6984 53.9291 23.6984 53.9291 23.6627 53.9291H23.5912H23.4839H23.3767V52.2626C23.3052 52.2981 23.1622 52.369 23.055 52.4045C22.9835 52.4399 22.9478 52.4399 22.8763 52.4754C22.8048 52.5108 22.7333 52.5108 22.6261 52.5463C22.4831 52.5817 22.3044 52.5817 22.1614 52.5817C21.9827 52.5817 21.8397 52.5463 21.661 52.5108C21.4823 52.4754 21.3393 52.369 21.2321 52.2626C21.1248 52.1563 21.0533 52.0144 21.0533 51.8372V50.6316H21.1606H21.2678H21.3393H21.4823V51.8372C21.4823 52.0144 21.5538 52.1563 21.7325 52.2272C21.9112 52.2981 22.0899 52.3336 22.3401 52.3336C22.5188 52.3336 22.6976 52.2981 22.8763 52.2272C23.0908 52.1563 23.2337 52.0854 23.3767 51.979Z" fill="#EAEBE7"/>
<path d="M26.0933 53.6809H27.2013V50.5962C27.2728 50.5962 27.3443 50.5962 27.4158 50.5962C27.523 50.5962 27.5945 50.5962 27.6303 50.5962V53.6809H28.7383V50.5962C28.8098 50.5962 28.8813 50.5962 28.9528 50.5962C29.0243 50.5962 29.0958 50.5962 29.1673 50.5962V53.9291C29.06 53.9291 28.8813 53.9291 28.7026 53.9291C28.5239 53.9291 28.3094 53.9291 28.0592 53.9291C27.809 53.9291 27.6303 53.9291 27.4158 53.9291H26.3077C26.2005 53.9291 26.0933 53.9291 25.9146 53.9291C25.7716 53.9291 25.7001 53.9291 25.6643 53.9291V50.5962C25.7358 50.5962 25.8073 50.5962 25.8788 50.5962C25.9503 50.5962 26.0218 50.5962 26.0933 50.5962V53.6809V53.6809Z" fill="#EAEBE7"/>
<path d="M31.026 53.9291V50.5962C31.0617 50.5962 31.1332 50.5962 31.2404 50.5962H31.4549V53.149H31.4906L33.7425 50.5962H33.957V53.9291C33.8855 53.9291 33.814 53.9291 33.7425 53.9291C33.7068 53.9291 33.6353 53.9291 33.5281 53.9291V51.2699H33.4923L31.4549 53.6454C31.3477 53.7518 31.2762 53.8582 31.2047 53.9291H31.026Z" fill="#EAEBE7"/>
<path d="M36.2446 50.8089V52.0499H36.9953H37.1382H37.2812H37.4242V52.1208V52.1917V52.2272V52.2981H37.2812H37.1382H36.9953H36.2446V53.7163C36.2804 53.7163 36.4233 53.7163 36.6378 53.7163C36.888 53.7163 37.031 53.7163 37.1382 53.7163C37.2097 53.7163 37.2812 53.7163 37.3527 53.7163C37.4242 53.7163 37.4957 53.6809 37.6029 53.6809V53.7163V53.7518V53.7873C37.6029 53.8227 37.6029 53.8582 37.6029 53.8582V53.9291H35.8157V50.5962H37.5672V50.6671V50.738V50.8089V50.8798C37.4957 50.8798 37.4242 50.8444 37.3527 50.8444C37.2812 50.8444 37.2097 50.8444 37.1025 50.8444H36.6021H36.2446V50.8089Z" fill="#EAEBE7"/>
<path d="M41.1773 52.9718V52.7236H46.0743V52.9718H41.1773Z" fill="#EAEBE7"/>
<path d="M49.8632 50.5962H52.7942V53.9291H52.7227C52.687 53.9291 52.687 53.9291 52.6512 53.9291H52.5797H52.5082H52.4367H52.3653V50.8444C52.258 50.8444 52.0793 50.8444 51.8291 50.8444C51.6146 50.8444 51.4359 50.8444 51.3287 50.8444C51.2214 50.8444 51.0427 50.8444 50.8283 50.8444C50.6138 50.8444 50.4351 50.8444 50.2921 50.8444V53.9291H50.2206C50.1849 53.9291 50.1849 53.9291 50.1491 53.9291H50.0776H49.9704H49.8632V50.5962V50.5962Z" fill="#EAEBE7"/>
<path d="M55.0818 52.4045V53.9291H55.0103C54.9746 53.9291 54.9746 53.9291 54.9388 53.9291H54.8674H54.7601H54.6529V50.5962H55.5465C55.8682 50.5962 56.1184 50.6316 56.2971 50.6671C56.4758 50.7026 56.6188 50.8089 56.6903 50.9153C56.7618 51.0217 56.7975 51.1989 56.7975 51.3762C56.7975 51.589 56.7618 51.7308 56.6903 51.8726C56.6188 52.0144 56.5116 52.1208 56.3329 52.1917C56.1899 52.2626 55.9754 52.3335 55.7252 52.369C55.6895 52.369 55.6537 52.369 55.618 52.369C55.5822 52.369 55.5108 52.369 55.4393 52.369H55.4035H55.3678H55.332H55.2963H55.2605H55.2248H55.1533H55.0818V52.4045ZM55.0818 50.7735V52.1917H55.2963C55.2963 52.1917 55.332 52.1917 55.4035 52.1917C55.475 52.1917 55.5107 52.1917 55.5465 52.1917C55.7252 52.1917 55.8324 52.1208 55.9754 52.0499C56.0827 51.979 56.1899 51.8726 56.2256 51.7662C56.2614 51.6599 56.3329 51.5181 56.3329 51.3762C56.3329 51.2699 56.2971 51.1635 56.2614 51.0571C56.2256 50.9508 56.1541 50.8798 56.0827 50.8444C56.0112 50.7735 55.9039 50.738 55.761 50.738C55.761 50.738 55.6895 50.738 55.618 50.738C55.5465 50.738 55.4393 50.738 55.3678 50.738C55.2963 50.738 55.2248 50.738 55.189 50.738C55.1533 50.738 55.1176 50.7735 55.0818 50.7735Z" fill="#EAEBE7"/>
<path d="M60.0503 54C59.8001 54 59.5498 53.9645 59.2996 53.8936C59.0852 53.8227 58.8707 53.6809 58.7277 53.5391C58.5848 53.3972 58.4418 53.22 58.3703 52.9718C58.3345 52.8654 58.2988 52.759 58.2631 52.6527C58.2273 52.5463 58.2273 52.4045 58.2273 52.2981C58.2273 52.0499 58.2631 51.8017 58.3703 51.589C58.4775 51.3762 58.5848 51.199 58.7635 51.0217C58.9422 50.8798 59.1209 50.7735 59.3354 50.6671C59.5498 50.5962 59.8001 50.5607 60.0503 50.5607C60.3005 50.5607 60.5149 50.5962 60.7294 50.6671C60.9439 50.738 61.1583 50.8444 61.3371 50.9862C61.5158 51.128 61.6588 51.3053 61.766 51.5181C61.8732 51.7308 61.909 51.979 61.909 52.2626C61.909 52.6172 61.8375 52.9363 61.6588 53.1845C61.5158 53.4682 61.2656 53.6809 60.9796 53.8227C60.6937 53.9645 60.4077 54 60.0503 54ZM61.4085 52.2272C61.4085 52.0499 61.4085 51.9435 61.3728 51.8372C61.3728 51.7308 61.3371 51.6244 61.2656 51.4826C61.2298 51.3762 61.1583 51.2699 61.0868 51.1635C61.0154 51.0571 60.9081 50.9862 60.8009 50.9153C60.6937 50.8444 60.5864 50.8089 60.4435 50.738C60.3005 50.6671 60.1932 50.6671 60.0503 50.6671C59.8358 50.6671 59.6571 50.7026 59.4784 50.7735C59.2996 50.8444 59.1567 50.9508 59.0494 51.0926C58.9422 51.2344 58.835 51.4117 58.7635 51.6244C58.692 51.8372 58.6562 52.0499 58.6562 52.2981C58.6562 52.5463 58.692 52.759 58.7635 52.9363C58.835 53.1136 58.9422 53.2909 59.0494 53.3972C59.1924 53.5391 59.3354 53.61 59.4784 53.6809C59.6213 53.7518 59.8001 53.7873 60.0145 53.7873C60.229 53.7873 60.4435 53.7518 60.6222 53.6454C60.8009 53.5391 60.9439 53.4327 61.0511 53.2554C61.1583 53.0781 61.2298 52.9009 61.3013 52.7236C61.4085 52.5463 61.4085 52.369 61.4085 52.2272Z" fill="#EAEBE7"/>
<path d="M66.1268 53.3972L66.091 53.7163C65.9838 53.7873 65.8766 53.8227 65.7693 53.8582C65.6621 53.8936 65.5191 53.9291 65.4119 53.9291C65.2689 53.9645 65.1617 53.9645 65.0187 53.9645C64.7327 53.9645 64.5183 53.9291 64.3038 53.8582C64.0894 53.7873 63.9106 53.6454 63.7677 53.5036C63.6247 53.3618 63.5174 53.149 63.4102 52.9363C63.303 52.7236 63.303 52.4754 63.303 52.2272C63.303 51.8726 63.3745 51.5535 63.5532 51.3053C63.7319 51.0571 63.9464 50.8444 64.2323 50.7026C64.5183 50.5607 64.84 50.4898 65.1617 50.4898C65.2689 50.4898 65.4119 50.4898 65.5191 50.5253C65.6264 50.5253 65.7693 50.5607 65.8766 50.5962C65.9838 50.6316 66.091 50.6671 66.1983 50.7026C66.1625 50.8089 66.1268 50.9153 66.091 51.0926H66.0553C66.0195 51.0571 65.9481 50.9862 65.8766 50.9153C65.8051 50.8444 65.6978 50.8089 65.5549 50.738C65.4119 50.6671 65.2689 50.6671 65.1259 50.6671C64.84 50.6671 64.5898 50.738 64.3753 50.8798C64.1608 51.0217 64.0179 51.1989 63.9106 51.4471C63.8034 51.6953 63.7677 51.9435 63.7677 52.2272C63.7677 52.5463 63.8391 52.7945 63.9464 53.0427C64.0536 53.2909 64.1966 53.4682 64.4111 53.5745C64.6255 53.6809 64.84 53.7518 65.0902 53.7518C65.2689 53.7518 65.4119 53.7163 65.5549 53.6809C65.6978 53.6454 65.8051 53.5745 65.9123 53.5036C65.9838 53.5036 66.0553 53.4327 66.1268 53.3972Z" fill="#EAEBE7"/>
<path d="M68.9506 50.8444V53.9291C68.8791 53.9291 68.8076 53.9291 68.7361 53.9291C68.6646 53.9291 68.5931 53.9291 68.5216 53.9291V50.8444C68.1999 50.8444 67.8067 50.8798 67.4493 50.9153V50.8444V50.7735V50.738V50.7026V50.6316H69.9872V50.7026V50.7735V50.8444V50.9153L69.5225 50.8798C69.451 50.8798 69.3795 50.8798 69.308 50.8798C69.1293 50.8444 69.0221 50.8444 68.9506 50.8444Z" fill="#EAEBE7"/>
<path d="M73.0969 54C72.8467 54 72.5965 53.9645 72.3463 53.8936C72.1318 53.8227 71.9173 53.6809 71.7744 53.5391C71.6314 53.3972 71.4884 53.22 71.4169 52.9718C71.3812 52.8654 71.3454 52.759 71.3097 52.6527C71.2739 52.5463 71.2739 52.4045 71.2739 52.2981C71.2739 52.0499 71.3097 51.8017 71.4169 51.589C71.5242 51.3762 71.6314 51.199 71.8101 51.0217C71.9888 50.8798 72.1675 50.7735 72.382 50.6671C72.5965 50.5962 72.8467 50.5607 73.0969 50.5607C73.3471 50.5607 73.5616 50.5962 73.776 50.6671C73.9905 50.738 74.205 50.8444 74.3837 50.9862C74.5624 51.128 74.7054 51.3053 74.8126 51.5181C74.9199 51.7308 74.9556 51.979 74.9556 52.2626C74.9556 52.6172 74.8841 52.9363 74.7054 53.1845C74.5624 53.4682 74.3122 53.6809 74.0263 53.8227C73.7403 53.9645 73.4543 54 73.0969 54ZM74.4909 52.2272C74.4909 52.0499 74.4909 51.9435 74.4552 51.8372C74.4552 51.7308 74.4194 51.6244 74.3479 51.4826C74.3122 51.3762 74.2407 51.2699 74.1692 51.1635C74.0977 51.0571 73.9905 50.9862 73.8833 50.9153C73.776 50.8444 73.6688 50.8089 73.5258 50.738C73.3829 50.6671 73.2756 50.6671 73.1326 50.6671C72.9182 50.6671 72.7395 50.7026 72.5607 50.7735C72.382 50.8444 72.239 50.9508 72.1318 51.0926C72.0246 51.2344 71.9173 51.4117 71.8459 51.6244C71.7744 51.8372 71.7386 52.0499 71.7386 52.2981C71.7386 52.5463 71.7744 52.759 71.8459 52.9363C71.9173 53.1136 72.0246 53.2909 72.1318 53.3972C72.2748 53.5391 72.4178 53.61 72.5607 53.6809C72.7037 53.7518 72.8824 53.7873 73.0969 53.7873C73.3114 53.7873 73.5258 53.7518 73.7045 53.6454C73.8833 53.5391 74.0262 53.4327 74.1335 53.2554C74.2407 53.0781 74.3122 52.9009 74.3837 52.7236C74.4552 52.5463 74.4909 52.369 74.4909 52.2272Z" fill="#EAEBE7"/>
<path d="M78.9232 50.5962H81.8542V53.9291H81.7827C81.747 53.9291 81.747 53.9291 81.7113 53.9291H81.6398H81.5683H81.4968H81.4253V50.8444C81.3181 50.8444 81.1394 50.8444 80.8891 50.8444C80.6747 50.8444 80.496 50.8444 80.3887 50.8444C80.2815 50.8444 80.1028 50.8444 79.8883 50.8444C79.6738 50.8444 79.4951 50.8444 79.3521 50.8444V53.9291H79.2807C79.2449 53.9291 79.2449 53.9291 79.2092 53.9291H79.1377H79.0304H78.9232V50.5962V50.5962Z" fill="#EAEBE7"/>
<path d="M85.3214 54C85.0712 54 84.821 53.9645 84.5708 53.8936C84.3563 53.8227 84.1419 53.6809 83.9989 53.5391C83.8559 53.3972 83.7129 53.22 83.6414 52.9718C83.6057 52.8654 83.5699 52.759 83.5342 52.6527C83.4985 52.5463 83.4985 52.4045 83.4985 52.2981C83.4985 52.0499 83.5342 51.8017 83.6414 51.589C83.7487 51.3762 83.8559 51.199 84.0346 51.0217C84.2133 50.8798 84.3921 50.7735 84.6065 50.6671C84.821 50.5962 85.0712 50.5607 85.3214 50.5607C85.5716 50.5607 85.7861 50.5962 86.0006 50.6671C86.215 50.738 86.4295 50.8444 86.6082 50.9862C86.7869 51.128 86.9299 51.3053 87.0371 51.5181C87.1444 51.7308 87.1801 51.979 87.1801 52.2626C87.1801 52.6172 87.1086 52.9363 86.9299 53.1845C86.7869 53.4682 86.5367 53.6809 86.2508 53.8227C85.9648 53.9645 85.6789 54 85.3214 54ZM86.7154 52.2272C86.7154 52.0499 86.7154 51.9435 86.6797 51.8372C86.6797 51.7308 86.644 51.6244 86.5725 51.4826C86.5367 51.3762 86.4652 51.2699 86.3937 51.1635C86.3223 51.0571 86.215 50.9862 86.1078 50.9153C86.0006 50.8444 85.8933 50.8089 85.7503 50.738C85.6074 50.6671 85.5001 50.6671 85.3572 50.6671C85.1427 50.6671 84.964 50.7026 84.7852 50.7735C84.6065 50.8444 84.4636 50.9508 84.3563 51.0926C84.2491 51.2344 84.1419 51.4117 84.0704 51.6244C83.9989 51.8372 83.9631 52.0499 83.9631 52.2981C83.9631 52.5463 83.9989 52.759 84.0704 52.9363C84.1419 53.1136 84.2491 53.2909 84.3563 53.3972C84.4993 53.5391 84.6423 53.61 84.7852 53.6809C84.9282 53.7518 85.1069 53.7873 85.3214 53.7873C85.5359 53.7873 85.7503 53.7518 85.9291 53.6454C86.1078 53.5391 86.2508 53.4327 86.358 53.2554C86.4652 53.0781 86.5367 52.9009 86.6082 52.7236C86.6797 52.5463 86.7154 52.369 86.7154 52.2272Z" fill="#EAEBE7"/>
<path d="M88.8244 50.5962H91.7554V53.9291H91.6839C91.6481 53.9291 91.6481 53.9291 91.6124 53.9291H91.5409H91.4694H91.3979H91.3264V50.8444C91.2192 50.8444 91.0405 50.8444 90.7903 50.8444C90.5758 50.8444 90.3971 50.8444 90.2899 50.8444C90.1826 50.8444 90.0039 50.8444 89.7894 50.8444C89.575 50.8444 89.3963 50.8444 89.2533 50.8444V53.9291H89.1818C89.1461 53.9291 89.1461 53.9291 89.1103 53.9291H89.0388H88.9316H88.8244V50.5962V50.5962Z" fill="#EAEBE7"/>
<path d="M94.043 52.4045V53.9291H93.9715C93.9358 53.9291 93.9358 53.9291 93.9 53.9291H93.8285H93.7213H93.6141V50.5962H94.5077C94.8294 50.5962 95.0796 50.6316 95.2583 50.6671C95.437 50.7026 95.58 50.8089 95.6515 50.9153C95.723 51.0217 95.7587 51.1989 95.7587 51.3762C95.7587 51.589 95.723 51.7308 95.6515 51.8726C95.58 52.0144 95.4728 52.1208 95.2941 52.1917C95.1511 52.2626 94.9366 52.3335 94.6864 52.369C94.6507 52.369 94.6149 52.369 94.5792 52.369C94.5434 52.369 94.4719 52.369 94.4004 52.369H94.3647H94.329H94.2932H94.2575H94.2217H94.186H94.1145H94.043V52.4045ZM94.043 50.7735V52.1917H94.2575C94.2575 52.1917 94.2932 52.1917 94.3647 52.1917C94.4362 52.1917 94.4719 52.1917 94.5077 52.1917C94.6864 52.1917 94.7936 52.1208 94.9366 52.0499C95.0438 51.979 95.1511 51.8726 95.1868 51.7662C95.2226 51.6599 95.2941 51.5181 95.2941 51.3762C95.2941 51.2699 95.2583 51.1635 95.2226 51.0571C95.1868 50.9508 95.1153 50.8798 95.0438 50.8444C94.9724 50.7735 94.8651 50.738 94.7221 50.738C94.7221 50.738 94.6507 50.738 94.5792 50.738C94.5077 50.738 94.4004 50.738 94.329 50.738C94.2575 50.738 94.186 50.738 94.1502 50.738C94.1145 50.738 94.0787 50.7735 94.043 50.7735Z" fill="#EAEBE7"/>
<path d="M99.0115 54C98.7612 54 98.511 53.9645 98.2608 53.8936C98.0464 53.8227 97.8319 53.6809 97.6889 53.5391C97.5459 53.3972 97.403 53.22 97.3315 52.9718C97.2957 52.8654 97.26 52.759 97.2242 52.6527C97.1885 52.5463 97.1885 52.4045 97.1885 52.2981C97.1885 52.0499 97.2242 51.8017 97.3315 51.589C97.4387 51.3762 97.5459 51.199 97.7247 51.0217C97.9034 50.8798 98.0821 50.7735 98.2966 50.6671C98.511 50.5962 98.7612 50.5607 99.0115 50.5607C99.2617 50.5607 99.4761 50.5962 99.6906 50.6671C99.9051 50.738 100.12 50.8444 100.298 50.9862C100.477 51.128 100.62 51.3053 100.727 51.5181C100.834 51.7308 100.87 51.979 100.87 52.2626C100.87 52.6172 100.799 52.9363 100.62 53.1845C100.477 53.4682 100.227 53.6809 99.9408 53.8227C99.6548 53.9645 99.3689 54 99.0115 54ZM100.405 52.2272C100.405 52.0499 100.405 51.9435 100.37 51.8372C100.37 51.7308 100.334 51.6244 100.262 51.4826C100.227 51.3762 100.155 51.2699 100.084 51.1635C100.012 51.0571 99.9051 50.9862 99.7978 50.9153C99.6906 50.8444 99.5834 50.8089 99.4404 50.738C99.2974 50.6671 99.1902 50.6671 99.0472 50.6671C98.8327 50.6671 98.654 50.7026 98.4753 50.7735C98.2966 50.8444 98.1536 50.9508 98.0464 51.0926C97.9391 51.2344 97.8319 51.4117 97.7604 51.6244C97.6889 51.8372 97.6532 52.0499 97.6532 52.2981C97.6532 52.5463 97.6889 52.759 97.7604 52.9363C97.8319 53.1136 97.9391 53.2909 98.0464 53.3972C98.1893 53.5391 98.3323 53.61 98.4753 53.6809C98.6183 53.7518 98.797 53.7873 99.0115 53.7873C99.2259 53.7873 99.4404 53.7518 99.6191 53.6454C99.7978 53.5391 99.9408 53.4327 100.048 53.2554C100.155 53.0781 100.227 52.9009 100.298 52.7236C100.37 52.5463 100.405 52.369 100.405 52.2272Z" fill="#EAEBE7"/>
<path d="M102.514 53.9291V50.5962H104.516C104.516 50.6316 104.516 50.6671 104.516 50.738C104.516 50.7735 104.516 50.8444 104.516 50.8798C104.445 50.8798 104.337 50.8444 104.266 50.8444C104.194 50.8444 104.123 50.8444 104.051 50.8444H103.479H102.943V52.0854H103.408C103.873 52.0854 104.23 52.1563 104.409 52.2981C104.623 52.4399 104.731 52.6527 104.731 52.9363C104.731 53.1136 104.695 53.2909 104.588 53.4327C104.48 53.5745 104.373 53.7163 104.194 53.7873C104.087 53.8227 104.016 53.8582 103.908 53.8936C103.801 53.9291 103.73 53.9291 103.622 53.9291H102.514V53.9291ZM102.943 52.2272V53.7163H103.444C103.622 53.7163 103.765 53.6809 103.873 53.61C103.98 53.5391 104.087 53.4327 104.159 53.3263C104.23 53.22 104.266 53.0781 104.266 52.9363C104.266 52.759 104.23 52.6172 104.123 52.4754C104.016 52.3336 103.873 52.2626 103.694 52.2626C103.622 52.2626 103.515 52.2626 103.408 52.2626H103.194C103.158 52.2626 103.122 52.2626 103.086 52.2626C102.979 52.2272 102.943 52.2272 102.943 52.2272Z" fill="#EAEBE7"/>
<path d="M107.876 52.4399L108.055 52.0499L108.341 51.5181L108.591 50.9862C108.591 50.9507 108.627 50.8798 108.698 50.7735C108.734 50.7026 108.77 50.6316 108.77 50.5962C108.805 50.5962 108.877 50.5962 108.948 50.5962H109.02H109.127L108.877 51.0217L108.305 52.1208L107.697 53.3263L107.411 53.8936C107.34 53.8936 107.304 53.8936 107.268 53.8936C107.197 53.8936 107.125 53.8936 107.054 53.8936C107.161 53.7163 107.268 53.5391 107.411 53.3263L107.662 52.9008L107.34 52.4399L106.911 51.8017L106.41 51.0571C106.303 50.9153 106.232 50.8089 106.16 50.7026C106.089 50.5962 106.053 50.5607 106.017 50.5253H106.339H106.446H106.625C106.839 50.8798 107.054 51.1989 107.233 51.4826C107.447 51.8017 107.662 52.0854 107.876 52.4045V52.4399Z" fill="#EAEBE7"/>
<path d="M110.557 53.9291V50.5962C110.593 50.5962 110.664 50.5962 110.771 50.5962C110.879 50.5962 110.95 50.5962 110.986 50.5962V53.149H111.022L113.273 50.5962H113.488V53.9291C113.416 53.9291 113.345 53.9291 113.273 53.9291C113.238 53.9291 113.166 53.9291 113.059 53.9291V51.2699H113.023L112.273 52.1208L111.236 53.2909L110.7 53.8936H110.557V53.9291ZM112.952 49.9934L113.059 50.2062C112.916 50.3125 112.737 50.348 112.559 50.4189C112.38 50.4898 112.201 50.4898 112.022 50.4898C111.665 50.4898 111.343 50.3835 111.022 50.2062L111.164 49.9934C111.415 50.1707 111.701 50.2416 112.058 50.2416C112.38 50.2416 112.701 50.1707 112.952 49.9934Z" fill="#EAEBE7"/>
<path d="M112.056 30.9462C111.06 27.6689 108.933 25.5589 105.403 24.5487C108.888 23.5386 111.06 21.451 112.033 17.9268C113.029 21.4061 115.179 23.561 118.686 24.5487C115.201 25.5589 113.074 27.6465 112.056 30.9462Z" fill="#EFAF84"/>
<path d="M104.249 30.4748C103.955 29.6443 103.411 29.1055 102.506 28.8137C103.411 28.5219 103.955 27.9832 104.226 27.0628C104.52 27.9607 105.041 28.5219 105.991 28.7913C105.086 29.1055 104.52 29.6443 104.249 30.4748Z" fill="#EFAF84"/>
<path d="M109.702 13.2353C109.929 13.7516 110.268 14.1332 110.902 14.3352C110.291 14.5372 109.929 14.8964 109.725 15.5249C109.521 14.9188 109.159 14.5597 108.571 14.3577C109.114 14.1107 109.499 13.774 109.702 13.2353Z" fill="#EFAF84"/>
<path d="M117.306 30.8564C117.804 31.8441 117.804 31.8441 119.026 32.6073C118.188 32.8991 117.623 33.4154 117.329 34.246C117.012 33.4154 116.469 32.8767 115.631 32.5624C116.446 32.293 116.989 31.7319 117.306 30.8564Z" fill="#EFAF84"/>
<path d="M109.137 19.0716C109.25 19.1614 109.34 19.2736 109.453 19.3634C109.612 19.7899 109.567 20.194 109.318 20.5756C108.865 21.2265 108.277 21.7877 107.553 22.1469C107.213 22.3264 106.851 22.3489 106.512 22.102C106.172 21.8551 106.195 21.5408 106.263 21.1816C106.353 21.0694 106.466 20.9796 106.557 20.8674C106.896 20.7776 107.258 20.6653 107.598 20.7551C108.028 20.8674 108.073 20.7327 108.028 20.3511C107.915 19.4307 108.277 19.0267 109.137 19.0716ZM108.005 21.3163C107.62 21.2041 107.304 21.1367 106.987 21.2265C106.806 21.2714 106.625 21.3612 106.67 21.6081C106.715 21.8551 106.942 21.8999 107.145 21.8551C107.439 21.7653 107.711 21.5857 108.005 21.3163ZM108.548 20.8225C108.82 20.5756 109.001 20.3511 109.091 20.0368C109.159 19.8123 109.137 19.5879 108.865 19.5205C108.616 19.4756 108.526 19.6777 108.48 19.8797C108.367 20.1715 108.39 20.4858 108.548 20.8225Z" fill="#EFAF84"/>
<path d="M69.9872 43.7177C70.2731 43.5758 70.5233 43.3986 70.7378 43.2213C70.9522 43.0085 71.131 42.7603 71.2739 42.4412C71.4169 42.1221 71.4884 41.7676 71.4884 41.3421C71.4884 40.8457 71.4169 40.4557 71.2382 40.1366C71.0952 39.8175 70.8808 39.5338 70.6306 39.3565C70.3803 39.1438 70.0944 39.002 69.7727 38.8956C69.5225 38.8247 68.9148 38.612 68.6289 38.612V38.7183C68.8791 38.7538 69.451 38.8956 69.7369 39.002C70.0229 39.1083 70.3088 39.2502 70.5591 39.4629C70.8093 39.6756 70.988 39.9238 71.1667 40.2429C71.3097 40.5621 71.3812 40.9521 71.3812 41.413C71.3812 41.803 71.3097 42.1576 71.2025 42.4767C71.0595 42.7603 70.9165 43.0085 70.702 43.2213C70.4876 43.434 70.2374 43.5758 69.9514 43.7177H69.9872ZM69.0221 33.7544C69.308 33.8608 69.5225 34.0381 69.7369 34.2154C69.9514 34.4281 70.0944 34.6763 70.2016 34.9599C70.3088 35.2791 70.3803 35.6336 70.3803 36.0591C70.3803 36.4137 70.3446 36.7328 70.2374 36.981C70.1301 37.2646 70.0229 37.4773 69.8442 37.6901C69.7012 37.9028 69.4867 38.0446 69.2723 38.1865C69.1293 38.2574 68.7361 38.4701 68.5931 38.541V38.6474C68.8076 38.5765 69.165 38.3992 69.308 38.2928C69.5225 38.151 69.7369 37.9737 69.8799 37.761C70.0586 37.5483 70.1659 37.3001 70.2731 37.0164C70.3803 36.7328 70.4161 36.4137 70.4161 36.0236C70.4161 35.5627 70.3446 35.1727 70.2374 34.889C70.0944 34.5699 69.9514 34.3217 69.7369 34.109C69.5225 33.8963 69.2723 33.719 69.0221 33.6126" fill="#EAEBE7"/>
<path d="M1.89445 43.2213L2.89529 44.2495H0.46468L1.67998 43.1858L2.57359 34.4281L1.75147 33.3644H3.61017L7.32757 42.6894L11.0807 33.3644H12.8679L12.0458 34.5699L12.9394 43.1858L14.1547 44.2495H10.7948L11.8313 43.2213L10.902 34.4281L7.50629 42.9376L8.39989 44.214H6.71991L2.78805 34.499L1.89445 43.2213Z" fill="#EAEBE7"/>
<path d="M16.0491 43.1504L17.05 44.2141H14.6194L15.8704 43.1504L19.838 34.2154L19.4091 33.329H20.6959L25.0567 43.0795L26.3435 44.2141H22.9478L23.9129 43.1504L23.0908 41.3775H16.8355L16.0491 43.1504ZM16.9428 41.1648H22.8763L19.9095 34.499L16.9428 41.1648Z" fill="#EAEBE7"/>
<path d="M29.346 43.1504L30.4541 44.2495H27.1299L28.2379 43.1504V33.5771V33.3644H33.8855L34.2787 35.2791L32.0626 33.5771H29.346V43.1504V43.1504Z" fill="#EAEBE7"/>
<path d="M44.7875 34.6763L37.1382 44.2141H36.888V34.3926L35.8157 33.329H38.2106L37.1025 34.3572V42.3703L44.3943 33.2935H46.0743L44.9662 34.499V43.0794L46.0743 44.1786H43.6437L44.7517 43.0794V34.6763H44.7875Z" fill="#EAEBE7"/>
<path d="M53.7593 39.0729H52.4725L49.7917 43.2922L50.721 44.2141H47.0394L48.5764 43.1858L50.9712 39.4274L52.258 39.0374H51.7934C51.4002 39.0374 50.9712 38.9665 50.5781 38.8247C50.1849 38.6829 49.8274 38.5056 49.5057 38.2574C49.184 38.0092 48.9338 37.7255 48.7194 37.371C48.5049 37.0164 48.4334 36.6264 48.4334 36.1655C48.4334 35.6691 48.5406 35.2436 48.7908 34.889C49.0411 34.5345 49.327 34.2154 49.7202 34.0026C50.0776 33.7544 50.5066 33.6126 50.9712 33.5062C51.4359 33.3999 51.8648 33.329 52.3295 33.329H55.9754L54.9031 34.3926V43.1149L56.0112 44.2141H52.687L53.795 43.1149V39.0729H53.7593ZM53.7593 33.5417H52.7227C52.3295 33.5417 51.9363 33.6126 51.5789 33.719C51.2215 33.8253 50.864 34.0026 50.5781 34.2154C50.2921 34.4281 50.0776 34.7118 49.8989 35.0309C49.7202 35.35 49.6487 35.74 49.6487 36.1655C49.6487 36.5909 49.7202 36.981 49.8989 37.3001C50.0776 37.6192 50.2921 37.9028 50.5781 38.1156C50.864 38.3283 51.1857 38.5056 51.5789 38.612C51.9363 38.7183 52.3295 38.7892 52.7227 38.7892H53.7593V33.5417Z" fill="#EAEBE7"/>
<path d="M30.0609 43.3631L29.9537 43.2213V34.5699H30.0609V43.3631Z" fill="#EAEBE7"/>
<path d="M38.1748 44.2141H38.0318L44.8232 35.6691L44.8947 35.74L38.1748 44.2141Z" fill="#EAEBE7"/>
<path d="M55.618 43.2567L55.5108 43.1504V34.6054L55.618 34.4636V43.2567Z" fill="#EAEBE7"/>
<path d="M25.6643 43.0085L25.4499 42.8667L21.2678 33.3644L21.375 33.329L25.6643 43.0085Z" fill="#EAEBE7"/>
<path d="M13.6543 43.2213L13.5471 43.1149L12.6535 34.5345L12.7607 34.4281L13.6543 43.2213Z" fill="#EAEBE7"/>
</g>
<defs>
<clipPath id="clip0">
<rect width="128" height="54" fill="white"/>
</clipPath>
</defs>
</svg>
