<svg width="117" height="117" viewBox="0 0 117 117" fill="none" xmlns="http://www.w3.org/2000/svg">
<path d="M45.4125 28.566L45.1925 28.7348L25.3376 43.976L25.3166 43.9922L25.2941 44.0063C23.29 45.2639 21.8517 47.2499 21.2823 49.5464L21.282 49.5475L10.8203 91.3964L10.8202 91.3967C10.4824 92.7452 10.3118 94.1302 10.3125 95.5205L10.3125 95.5208L10.3125 116.438H13.0875L13.0875 95.5211L13.0875 95.5208M45.4125 28.566L14.0576 92.2057C13.7863 93.29 13.6493 94.4032 13.65 95.5208H13.0875M45.4125 28.566V28.2887V5.85C45.4125 2.92975 47.7798 0.5625 50.7 0.5625H101.4C104.32 0.5625 106.688 2.92975 106.688 5.85V85.8C106.688 88.7202 104.32 91.0875 101.4 91.0875H73.166H72.8731L72.7052 91.3274L63.7976 104.051L63.7971 104.052C60.9311 108.158 56.8844 111.295 52.1938 113.047L52.1932 113.047L44.6525 115.875L44.2875 116.012V116.401V116.438L45.4125 28.566ZM13.0875 95.5208C13.0868 94.3571 13.2294 93.198 13.5119 92.0692L13.0875 95.5208ZM68.4002 91.65L68.0064 92.2125H68.4002V91.65ZM68.4002 91.65H67.7135L67.9394 91.3274L68.4002 91.65ZM26.9614 46.2347C26.909 46.2721 26.8713 46.2987 26.835 46.3213C26.8346 46.3215 26.8341 46.3218 26.8337 46.3221L26.9614 46.2347ZM56.6489 87.467L56.1566 88.3125H57.135H101.4C102.788 88.3125 103.913 87.1876 103.913 85.8V5.85C103.913 4.46245 102.788 3.3375 101.4 3.3375H50.7C49.3125 3.3375 48.1875 4.46245 48.1875 5.85V53.7927V55.1507L49.1478 54.1904L63.2989 40.0393L63.2991 40.0391C64.8527 38.4841 66.9612 37.6108 69.1595 37.6115C73.7329 37.6129 77.4391 41.3216 77.4375 45.895V45.8952V46.1991C77.4375 46.1992 77.4375 46.1993 77.4375 46.1994C77.4365 48.1741 76.7312 50.0833 75.4483 51.5842L60.1518 68.4927L60.0065 68.6534V68.8701V68.9247V68.9716L60.0142 69.0178C61.0811 75.3718 59.8905 81.899 56.6489 87.467Z" fill="#6D7483" stroke="#52515B" stroke-width="1.125"/>
<path d="M95.6761 22.104L95.5079 22.389L95.6753 22.6746C96.5035 24.0863 96.939 25.694 96.9362 27.3308C96.9279 32.3963 92.8147 36.4958 87.7491 36.4875L87.7473 36.4875C86.1105 36.4903 84.5028 36.0549 83.0911 35.2267C78.7219 32.6634 77.2578 27.0437 79.8211 22.6746L79.9886 22.3891L79.8203 22.104C79.0054 20.7235 78.5709 19.1515 78.5607 17.5483C78.5616 12.4751 82.6748 8.36255 87.7482 8.36255C92.8217 8.36255 96.9349 12.4752 96.9357 17.5484C96.9255 19.1515 96.491 20.7235 95.6761 22.104ZM89.7836 33.3949L89.7837 33.3948C93.1193 32.2982 94.9348 28.7051 93.8381 25.3694L93.6012 24.6486L92.9804 25.0848C89.8399 27.2916 85.6526 27.2916 82.5122 25.0848L81.8914 24.6486L81.6544 25.3694C81.4375 26.0291 81.3303 26.7198 81.3367 27.414C81.3693 30.9236 84.2393 33.7424 87.7483 33.7126C88.4397 33.7181 89.127 33.6106 89.7836 33.3949ZM81.3357 17.55C81.3357 21.0916 84.2066 23.9625 87.7482 23.9625C91.2898 23.9625 94.1607 21.0916 94.1607 17.55C94.1607 14.0085 91.2898 11.1375 87.7482 11.1375C84.2066 11.1375 81.3357 14.0085 81.3357 17.55Z" fill="#6D7483" stroke="#53525B" stroke-width="1.125"/>
<path d="M53.9995 11.7H52.6504V40.95H53.9995V11.7Z" fill="#6D7483"/>
<path d="M61.8752 13.65H60.4492V33.15H61.8752V13.65Z" fill="#6D7483"/>
<path d="M78.0006 58.5H76.5V66.3H78.0006V58.5Z" fill="#6D7483"/>
<path d="M78.0006 70.2H76.5V79.95H78.0006V70.2Z" fill="#6D7483"/>
<path d="M91.65 42.9H90V81.9H91.65V42.9Z" fill="#6D7483"/>
<path d="M99.4503 42.9H97.875V81.9H99.4503V42.9Z" fill="#6D7483"/>
</svg>
