<svg width="114" height="126" viewBox="0 0 114 126" fill="none" xmlns="http://www.w3.org/2000/svg">
<path d="M39.6719 108.969C39.6719 104.549 43.2681 100.953 47.6875 100.953C52.1069 100.953 55.7031 104.549 55.7031 108.969C55.7031 113.388 52.1069 116.984 47.6875 116.984C43.2681 116.984 39.6719 113.388 39.6719 108.969ZM42.0781 108.969C42.0781 112.062 44.5944 114.578 47.6875 114.578C50.7806 114.578 53.2969 112.062 53.2969 108.969C53.2969 105.876 50.7806 103.359 47.6875 103.359C44.5944 103.359 42.0781 105.876 42.0781 108.969Z" fill="#6D7483" stroke="#50505A"/>
<path d="M47.6875 110.672C48.6281 110.672 49.3906 109.909 49.3906 108.969C49.3906 108.028 48.6281 107.266 47.6875 107.266C46.7469 107.266 45.9844 108.028 45.9844 108.969C45.9844 109.909 46.7469 110.672 47.6875 110.672Z" fill="#6D7483"/>
<path d="M100.998 94.2981L100.997 94.2983L100.61 94.3988L99.9844 94.5614V93.9148V61.2812C99.9844 58.7404 97.9158 56.6719 95.375 56.6719H54.5C51.9592 56.6719 49.8906 58.7404 49.8906 61.2812V93.7411V94.3005L49.3347 94.238C48.7897 94.1767 48.2415 94.1406 47.6875 94.1406C47.6635 94.1406 47.6363 94.1422 47.5918 94.1455L47.581 94.1463C47.5422 94.1491 47.4884 94.1531 47.4331 94.1542L47.035 94.1618L46.9384 93.7755L36.4182 51.6998L36.4182 51.6997C35.1454 46.6052 30.5903 43.0469 25.3374 43.0469H6.8125C4.27167 43.0469 2.20312 45.1154 2.20312 47.6562C2.20312 50.1971 4.27167 52.2656 6.8125 52.2656H25.3374C26.3492 52.2656 27.228 52.9537 27.4744 53.9348L27.4745 53.9353L38.2808 97.1589L38.3563 97.4607L38.1189 97.6617C34.9044 100.385 32.8594 104.441 32.8594 108.969C32.8594 117.144 39.5127 123.797 47.6875 123.797C53.8672 123.797 59.1736 119.992 61.397 114.603L61.4913 114.374L61.7304 114.31L103.377 103.204L100.998 94.2981ZM100.998 94.2981C103.469 93.6513 106.002 95.1693 106.642 97.5626M100.998 94.2981L106.642 97.5626M62.2678 111.675L62.3686 110.932C62.4569 110.28 62.5156 109.629 62.5156 108.969C62.5156 108.476 62.4893 107.986 62.4414 107.502L62.3996 107.079L62.8102 106.97L101.614 96.6218L62.2678 111.675ZM62.2678 111.675L62.9929 111.482M62.2678 111.675L62.9929 111.482M62.9929 111.482L102.756 100.878C102.756 100.878 102.756 100.878 102.756 100.878C103.932 100.565 104.628 99.3537 104.318 98.181L104.317 98.1789M62.9929 111.482L104.317 98.1789M104.317 98.1789C104.009 97.0331 102.81 96.3021 101.614 96.6217L104.317 98.1789ZM106.642 97.5626C107.294 100.017 105.83 102.548 103.377 103.204L106.642 97.5626ZM73.2344 70.2969H73.7344V69.7969V63.4844H76.1406V69.7969V70.2969H76.6406H80.0469H80.5469V69.7969V59.5781V59.0781H80.0469H69.8281H69.3281V59.5781V69.7969V70.2969H69.8281H73.2344ZM66.9219 59.5781V59.0781H66.4219H54.5C53.2854 59.0781 52.2969 60.0667 52.2969 61.2812V94.5348V94.8878L52.6295 95.0059C56.9151 96.5284 60.2964 99.9594 61.7427 104.279L61.8919 104.724L62.3457 104.603L97.2069 95.3074L97.5781 95.2084V94.8243V61.2812C97.5781 60.0667 96.5896 59.0781 95.375 59.0781H83.4531H82.9531V59.5781V72.7031H66.9219V59.5781ZM15.8281 45.9531V45.4531H15.3281H6.8125C5.59794 45.4531 4.60938 46.4417 4.60938 47.6562C4.60938 48.8708 5.59794 49.8594 6.8125 49.8594H15.3281H15.8281V49.3594V45.9531ZM29.8084 53.3517L29.8084 53.3519L40.3252 95.4122L40.4772 96.0202L41.0363 95.737C42.0135 95.2418 43.0542 94.8563 44.1438 94.5876L44.6308 94.4675L44.5091 93.9809L34.0843 52.2833L34.0843 52.2832C33.0783 48.2629 29.4825 45.4531 25.3374 45.4531H18.7344H18.2344V45.9531V49.3594V49.8594H18.7344H25.3374C27.4565 49.8594 29.2951 51.2955 29.8084 53.3517ZM35.2656 108.969C35.2656 115.819 40.8373 121.391 47.6875 121.391C54.5377 121.391 60.1094 115.819 60.1094 108.969C60.1094 102.119 54.5377 96.5469 47.6875 96.5469C40.8373 96.5469 35.2656 102.119 35.2656 108.969Z" fill="#6D7483" stroke="#53525B"/>
<path d="M56 90H60V91H56V90Z" fill="#6D7483"/>
<path d="M63 90H66V91H63V90Z" fill="#6D7483"/>
<path d="M70 90H73V91H70V90Z" fill="#6D7483"/>
<path d="M56 86H73V87H56V86Z" fill="#6D7483"/>
<path d="M23.8438 89.7344H13.625C12.4104 89.7344 11.4219 90.7229 11.4219 91.9375C11.4219 93.1521 12.4104 94.1406 13.625 94.1406H20.4375C22.9783 94.1406 25.0469 96.2092 25.0469 98.75C25.0469 101.291 22.9783 103.359 20.4375 103.359H6.8125C5.59794 103.359 4.60938 104.348 4.60938 105.562C4.60938 106.777 5.59794 107.766 6.8125 107.766H28.4531V110.172H6.8125C4.27167 110.172 2.20312 108.103 2.20312 105.562C2.20312 103.022 4.27167 100.953 6.8125 100.953H20.4375C21.6521 100.953 22.6406 99.9646 22.6406 98.75C22.6406 97.5354 21.6521 96.5469 20.4375 96.5469H13.625C11.0842 96.5469 9.01562 94.4783 9.01562 91.9375C9.01562 89.3967 11.0842 87.3281 13.625 87.3281H23.8438C25.0583 87.3281 26.0469 86.3396 26.0469 85.125C26.0469 83.9104 25.0583 82.9219 23.8438 82.9219H10.2188C7.67792 82.9219 5.60938 80.8533 5.60938 78.3125C5.60938 75.7717 7.67792 73.7031 10.2188 73.7031H26.75V76.1094H10.2188C9.00419 76.1094 8.01562 77.0979 8.01562 78.3125C8.01562 79.5271 9.00419 80.5156 10.2188 80.5156H23.8438C26.3846 80.5156 28.4531 82.5842 28.4531 85.125C28.4531 87.6658 26.3846 89.7344 23.8438 89.7344Z" fill="#6D7483" stroke="#4E505A"/>
<path d="M84.528 13.8973V18.4493" stroke="#6D7483"/>
<path d="M84.528 33.6226V38.1746" stroke="#6D7483"/>
<path d="M85.2979 26.0359H83.7558C81.5968 26.0359 79.9004 24.3668 79.9004 22.2426C79.9004 20.1183 81.5968 18.4493 83.7558 18.4493H85.2979C87.4569 18.4493 89.1533 20.1183 89.1533 22.2426" stroke="#6D7483"/>
<path d="M83.7558 26.0359H85.2979C87.4569 26.0359 89.1533 27.705 89.1533 29.8292C89.1533 31.9535 87.4569 33.6225 85.2979 33.6225H83.7558C81.5968 33.6225 79.9004 31.9535 79.9004 29.8292" stroke="#6D7483"/>
<path d="M113 9H56V43H113V9Z" stroke="#6D7483"/>
<path d="M65 9C65 13.3077 61.4615 17 57 17" stroke="#6D7483"/>
<path d="M65 42C65 38.2308 61.4615 35 57 35" stroke="#6D7483"/>
<path d="M104 9C104 13.3077 107.981 17 113 17" stroke="#6D7483"/>
<path d="M104 42C104 38.2308 107.981 35 113 35" stroke="#6D7483"/>
<path d="M55 4.96552H90.4345C90.4345 4.96552 103.278 4.62069 109.931 1C110.086 1 109.931 6 109.931 6" stroke="#6D7483"/>
</svg>
