<svg width="123" height="109" viewBox="0 0 123 109" fill="none" xmlns="http://www.w3.org/2000/svg">
<path d="M57.486 69.4811H120.41V2.58295H2.58911V69.4811H35.9933" stroke="#6D7483" stroke-width="1.5"/>
<path d="M57.4874 57.8578H101.767C102.285 54.5 105.134 51.6588 108.5 51.4005V20.6635C105.134 20.1469 102.285 17.564 101.767 14.4645H21.2347C20.4579 17.8223 17.8684 20.4052 14.5021 20.9218V51.4005C17.8684 51.9171 20.7168 54.5 21.2347 57.8578H36.7716" stroke="#6D7483" stroke-width="1.5"/>
<path d="M48.6834 36.1612C48.6834 43.1351 54.3802 48.8176 61.6308 48.8176C68.6223 48.8176 74.5781 43.1351 74.5781 36.1612C74.5781 29.1872 68.8813 23.5048 61.6308 23.5048C54.3802 23.5048 48.6834 28.9289 48.6834 36.1612Z" stroke="#6D7483" stroke-width="1.5"/>
<path d="M41.6895 36.1611H22.7863" stroke="#6D7483" stroke-width="1.5"/>
<path d="M81.3078 36.1611H100.211" stroke="#6D7483" stroke-width="1.5"/>
<path d="M35.9928 78.0048V54.7583C35.9928 51.9171 38.3233 49.5924 41.1718 49.5924H43.7612C46.6097 49.5924 48.9402 51.9171 48.9402 54.7583V78.0048C48.9402 78.0048 60.0749 91.6943 54.896 104.609V109" stroke="#6D7483" stroke-width="1.5"/>
<path d="M61.3707 69.9977L65.2549 73.8721C67.3265 75.9384 67.3265 79.2962 65.2549 81.1043L63.4423 82.9123C61.3707 84.9787 58.0044 84.9787 56.1917 82.9123L51.2717 78.0048" stroke="#6D7483" stroke-width="1.5" stroke-linecap="round"/>
<path d="M16.8319 71.0308V79.5545C16.8319 83.4289 17.8677 87.3033 20.1982 90.6611L29.7793 105.384V108.742" stroke="#6D7483" stroke-width="1.5"/>
</svg>
